<svg width="140" height="140" viewBox="0 0 140 140" fill="none" xmlns="http://www.w3.org/2000/svg">
<circle cx="70" cy="70" r="70" fill="#C2FADF" fill-opacity="0.27"/>
<path d="M97.7781 72.5371L89.8308 56.602C89.7409 56.4258 89.6218 56.2618 89.4703 56.1245C89.3185 55.9876 89.1484 55.8872 88.971 55.8236L79.6519 52.4743C79.0027 52.241 78.3073 52.1158 77.5836 52.1223C76.8607 52.13 76.1685 52.2689 75.5225 52.5148L68.4517 55.2121C67.9539 55.4024 67.4598 55.6211 66.9726 55.8702C66.8098 55.9544 66.6498 56.0455 66.4906 56.135C65.9569 55.8459 65.3996 55.5911 64.818 55.3745C62.9631 54.6811 61.0636 54.447 59.2253 54.6041L54.4682 55.0124C54.2613 55.0302 54.0523 55.0942 53.8571 55.2088C53.6619 55.3238 53.5007 55.4789 53.3739 55.6584L42.6625 70.907C42.4417 71.2201 42.3239 71.6186 42.3599 72.0402C42.3952 72.4618 42.5766 72.8316 42.8447 73.0973L47.5038 77.7147C47.2483 78.1824 47.0863 78.7077 47.049 79.2699C46.9818 80.2799 47.3135 81.2552 47.9801 82.0162C48.6476 82.7768 49.5706 83.2324 50.5814 83.2984C50.6353 83.302 50.69 83.302 50.7446 83.3041C50.3303 84.6434 50.6693 86.1646 51.7486 87.186C52.3946 87.7975 53.2228 88.1539 54.1029 88.2111C53.5359 89.6164 53.8425 91.2923 55.0012 92.3886C55.7079 93.0585 56.6321 93.4266 57.6062 93.4266C58.6203 93.4266 59.5664 93.0306 60.2808 92.3153C60.5465 94.0317 61.9725 95.4002 63.7759 95.5181C63.859 95.5237 63.944 95.5274 64.027 95.5274C64.4879 95.5274 64.9294 95.4403 65.34 95.2872C66.0107 95.7343 66.8102 95.9806 67.6611 95.9461C68.7068 95.9024 69.6448 95.4411 70.3462 94.7194L67.7838 92.1626C67.7899 92.1035 67.8008 92.0468 67.8032 91.9856C67.8365 91.4834 67.7676 90.9975 67.6182 90.5459L72.8625 95.7769C73.5243 96.0462 74.2444 96.181 74.9944 96.1507C76.4954 96.0895 77.8323 95.3808 78.7792 94.284L79.304 93.6753C79.3526 93.6178 79.3899 93.553 79.4223 93.4833L71.3478 85.4311C71.1396 85.225 71.123 84.882 71.3077 84.6661C71.4928 84.4514 71.8136 84.4441 72.0201 84.6503L81.6231 94.2265C82.1463 94.41 82.7064 94.4995 83.2884 94.4756C84.6079 94.4217 85.7852 93.7984 86.6175 92.8325L87.8856 91.3648C88.1764 91.0262 88.3497 90.5694 88.3335 90.0728L79.9067 81.6715C79.7009 81.465 79.6823 81.1211 79.867 80.9069C80.0533 80.6918 80.3732 80.6845 80.5794 80.8907L89.0459 89.3329C89.3934 89.4256 89.7583 89.471 90.1333 89.456C91.2151 89.4123 92.1774 88.902 92.8586 88.111L93.1992 87.7165C93.8808 86.9272 94.2826 85.858 94.2416 84.6952C94.2003 83.5329 93.7265 82.5001 92.9918 81.7671L90.7315 79.5137L91.3026 80.0823L97.414 74.5638C97.6736 74.3305 97.8619 74.0037 97.9308 73.6197C97.9992 73.2362 97.9373 72.8575 97.7781 72.5371ZM50.6875 81.6646C50.1145 81.6274 49.5904 81.369 49.2109 80.9364C48.8318 80.5051 48.6447 79.9515 48.6828 79.3772C48.7553 78.2501 49.6989 77.3676 50.8256 77.3676C50.8734 77.3676 50.922 77.3688 50.9698 77.3716C51.5429 77.4097 52.067 77.6677 52.4465 78.1002C52.8255 78.5324 53.0126 79.0856 52.9758 79.6599C52.8972 80.8348 51.8762 81.744 50.6875 81.6646ZM54.3516 86.5854C53.7996 86.5854 53.2747 86.3772 52.8737 85.9977C52.0228 85.1934 51.9767 83.8379 52.7664 82.9809C52.8073 82.9384 53.6465 82.0506 54.049 81.627L54.2605 81.4022C54.6711 80.9688 55.226 80.7299 55.8229 80.7299C56.3754 80.7299 56.9006 80.9393 57.3008 81.3196C57.7183 81.714 57.9577 82.2474 57.9731 82.8225C57.9889 83.3956 57.7799 83.9419 57.3854 84.3583L56.7868 84.9913C56.6589 85.1258 56.5216 85.2712 56.381 85.4194C56.3588 85.4445 56.3341 85.4696 56.3126 85.4931C56.2081 85.6029 56.1158 85.7001 56.0441 85.775C56.0032 85.8191 55.9623 85.8633 55.9201 85.9062C55.9096 85.9171 55.9015 85.9264 55.9007 85.9277C55.4933 86.3521 54.9421 86.5854 54.3516 86.5854ZM59.1537 91.1319C58.745 91.5564 58.1954 91.7896 57.6053 91.7896C57.0529 91.7896 56.5268 91.5802 56.1271 91.2004C55.2766 90.396 55.23 89.0409 56.0173 88.188C56.036 88.1677 56.5289 87.6461 57.0874 87.0568L57.5021 86.6186C58.2282 85.8499 58.4664 85.6 58.5466 85.5129C58.5559 85.5044 58.5668 85.4943 58.5745 85.4854L58.5761 85.4842C58.6462 85.4085 58.6871 85.3663 58.6883 85.3651C59.0982 84.9318 59.6538 84.6924 60.2512 84.6924C60.8036 84.6924 61.3277 84.9014 61.7291 85.2813C62.1466 85.6766 62.3848 86.2104 62.4005 86.7838C62.4163 87.3593 62.2074 87.9053 61.8113 88.3236C61.7728 88.3641 59.2367 91.0436 59.1537 91.1319ZM63.8824 93.8859C62.699 93.8073 61.7991 92.7811 61.8773 91.5985C61.9514 90.4705 62.8914 89.5881 64.0197 89.5881C64.0675 89.5881 64.1161 89.5897 64.1639 89.5925C65.3469 89.6703 66.2468 90.6965 66.1699 91.8795C66.0921 93.0536 65.0727 93.9641 63.8824 93.8859ZM90.1771 78.9613L73.4368 62.2712L73.6255 61.7945C73.7231 61.5459 73.7106 61.2522 73.5676 61.0052C73.4242 60.7589 73.1845 60.6156 72.9334 60.6022L71.6892 60.5277L70.33 60.4471L70.2268 62.0582C70.2255 62.0918 69.9562 65.7554 68.088 69.0655C66.1727 72.4622 63.635 73.6335 63.2482 73.7088C62.8161 73.7926 62.3629 73.8724 61.9862 73.8724C61.7274 73.8724 61.5282 73.836 61.3577 73.7578L60.7222 73.4634C60.4557 73.3399 60.2524 73.1131 60.1451 72.8239C60.0406 72.5448 60.0418 72.2399 60.1451 71.9616L66.5121 57.9883L67.5947 57.2751L68.0309 57.1091H68.03L76.032 54.057C76.535 53.8654 77.062 53.765 77.597 53.7601L77.6415 53.7597C78.1607 53.7597 78.6751 53.8496 79.1675 54.027L88.487 57.3764L96.4351 73.3111L90.1771 78.9613Z" fill="#1DBF73"/>
<path d="M99.2344 46.4248L92.9431 49.5615C92.0384 50.0139 91.3045 50.811 90.9578 51.8461C90.6116 52.8817 90.7189 53.9594 91.1688 54.8662L99.4061 71.3801C99.8577 72.2845 100.654 73.0195 101.692 73.3646C102.726 73.7113 103.804 73.6056 104.71 73.1536L111 70.0152L99.2344 46.4248ZM104.694 70.025C103.858 70.025 103.179 69.3474 103.179 68.5107C103.179 67.6731 103.858 66.9939 104.694 66.9939C105.531 66.9939 106.211 67.6731 106.211 68.5107C106.211 69.3474 105.531 70.025 104.694 70.025Z" fill="#1DBF73"/>
<path d="M30 66.4147L35.7518 70.4554C36.5796 71.0378 37.6298 71.303 38.7055 71.1147C39.782 70.9272 40.6786 70.3205 41.2598 69.4931L51.868 54.3923C52.4508 53.5649 52.716 52.5135 52.5285 51.4386C52.3394 50.3625 51.7351 49.465 50.9065 48.8826L45.1539 44.8428L30 66.4147ZM34.9612 65.6395C35.086 64.8117 35.8583 64.2419 36.6849 64.3662C37.5136 64.4913 38.0826 65.2641 37.9587 66.0915C37.8335 66.9201 37.062 67.49 36.2338 67.364C35.4055 67.2401 34.8361 66.4682 34.9612 65.6395Z" fill="#1DBF73"/>
</svg>
