<svg width="140" height="140" viewBox="0 0 140 140" fill="none" xmlns="http://www.w3.org/2000/svg">
<circle cx="70" cy="70" r="70" fill="#C2FADF" fill-opacity="0.27"/>
<path fill-rule="evenodd" clip-rule="evenodd" d="M89.4177 49.301H101.572L89.4177 37.6734V49.301ZM102.536 50.6041H88.7367C88.363 50.6041 88.0553 50.3126 88.0553 49.9525V36.7516H87.701L48.5743 36.7462C48.5743 56.7119 48.5743 76.6775 48.5743 96.6431H102.536V50.6041ZM47.2119 92.9244V36.1V36.0839V36.068L47.2148 36.052L47.2177 36.0361L47.229 35.9672C47.2895 35.6706 47.5636 35.4482 47.8932 35.4482L86.9401 35.4534L86.8652 34.2191H85.5222H44.8529C44.8529 53.7874 44.8529 73.3559 44.8529 92.9241H47.2119V92.9244ZM54.9313 43.6063C55.4182 42.9654 56.1159 42.5626 56.8995 42.5626C57.6832 42.5626 58.3779 42.9653 58.8682 43.6063C59.3082 44.1943 59.5851 44.9888 59.5851 45.8525C59.5851 46.6946 59.3224 47.4681 58.8983 48.0507L58.8682 48.0984C58.3779 48.7393 57.6832 49.1367 56.8995 49.1367C56.1159 49.1367 55.4182 48.7394 54.9313 48.0984C54.4879 47.5105 54.2111 46.7159 54.2111 45.8525C54.2111 45.0101 54.4744 44.2314 54.8979 43.654L54.9313 43.6063ZM56.8995 43.8659C56.5756 43.8659 56.2653 44.0619 56.0304 44.3692L56.0026 44.401C55.7393 44.7663 55.5735 45.2803 55.5735 45.8525C55.5735 46.4404 55.7479 46.9649 56.0275 47.3356C56.2653 47.6428 56.5756 47.8336 56.8995 47.8336C57.2234 47.8336 57.5338 47.6429 57.7664 47.3356L57.7935 47.2986C58.0596 46.9329 58.2227 46.4245 58.2227 45.8525C58.2227 45.259 58.0483 44.7347 57.7685 44.3692C57.5338 44.0617 57.2235 43.8659 56.8995 43.8659ZM50.9331 43.1985C50.9331 42.8382 51.2377 42.5468 51.6115 42.5468C51.9881 42.5468 52.2927 42.8382 52.2927 43.1985V48.5064C52.2927 48.8666 51.9881 49.158 51.6115 49.158C51.2379 49.158 50.9331 48.8666 50.9331 48.5064V43.1985ZM64.7351 43.6063C65.225 42.9654 65.9202 42.5626 66.7034 42.5626C67.4843 42.5626 68.1819 42.9653 68.6693 43.6063C69.1122 44.1943 69.3889 44.9888 69.3889 45.8525C69.3889 46.6946 69.1263 47.4733 68.7027 48.0507L68.6693 48.0984C68.1819 48.7393 67.4843 49.1367 66.7034 49.1367C65.9202 49.1367 65.225 48.7394 64.7351 48.0984C64.2918 47.5105 64.0177 46.7159 64.0177 45.8525C64.0177 45.0101 64.2781 44.2314 64.7045 43.654L64.7351 43.6063ZM66.7034 43.8659C66.3796 43.8659 66.0698 44.0619 65.8342 44.3692L65.8065 44.401C65.5409 44.7663 65.38 45.2803 65.38 45.8525C65.38 46.4404 65.5515 46.9649 65.8341 47.3356C66.0696 47.6428 66.3794 47.8336 66.7032 47.8336C67.027 47.8336 67.3345 47.6429 67.5701 47.3356L67.5979 47.2986C67.8634 46.9329 68.027 46.4245 68.027 45.8525C68.027 45.259 67.8526 44.7347 67.573 44.3692C67.3347 44.0617 67.0272 43.8659 66.7034 43.8659ZM60.734 43.1985C60.734 42.8382 61.0386 42.5468 61.4152 42.5468C61.7916 42.5468 62.0964 42.8382 62.0964 43.1985V48.5064C62.0964 48.8666 61.7918 49.158 61.4152 49.158C61.0386 49.158 60.734 48.8666 60.734 48.5064V43.1985ZM74.5387 43.6063C75.0291 42.9654 75.7239 42.5626 76.5075 42.5626C77.2878 42.5626 77.9832 42.9653 78.473 43.6063C78.9164 44.1889 79.1932 44.9888 79.1932 45.8525C79.1932 46.7159 78.9164 47.5105 78.473 48.0984C77.9832 48.7393 77.2878 49.1367 76.5075 49.1367C75.7239 49.1367 75.0291 48.7394 74.5387 48.0984C74.0959 47.5105 73.822 46.7159 73.822 45.8525C73.822 45.0101 74.0817 44.2314 74.5053 43.654L74.5387 43.6063ZM76.5077 43.8659C76.1837 43.8659 75.8734 44.0619 75.6379 44.3692L75.6101 44.401C75.3473 44.7663 75.181 45.2803 75.181 45.8525C75.181 46.4404 75.3559 46.9649 75.635 47.3356C75.8734 47.6428 76.1835 47.8336 76.5075 47.8336C76.8313 47.8336 77.1411 47.6429 77.3767 47.3356C77.6592 46.9649 77.8307 46.4403 77.8307 45.8525C77.8307 45.259 77.6563 44.7347 77.3767 44.3692C77.1411 44.0617 76.8313 43.8659 76.5077 43.8659ZM70.5385 43.1985C70.5385 42.8382 70.8452 42.5468 71.219 42.5468C71.5956 42.5468 71.9004 42.8382 71.9004 43.1985V48.5064C71.9004 48.8666 71.5956 49.158 71.219 49.158C70.8454 49.158 70.5385 48.8666 70.5385 48.5064V43.1985ZM80.3422 43.1985C80.3422 42.8382 80.6495 42.5468 81.0233 42.5468C81.3999 42.5468 81.704 42.8382 81.704 43.1985V48.5064C81.704 48.8666 81.3999 49.158 81.0233 49.158C80.6497 49.158 80.3422 48.8666 80.3422 48.5064V43.1985ZM54.9313 54.1532C55.4182 53.5124 56.1159 53.1097 56.8995 53.1097C57.6832 53.1097 58.3779 53.5122 58.8682 54.1532C59.3082 54.7413 59.5851 55.5357 59.5851 56.3993C59.5851 57.2417 59.3224 58.015 58.8983 58.5977L58.8682 58.64C58.3779 59.2863 57.6832 59.6835 56.8995 59.6835C56.1159 59.6835 55.4182 59.2863 54.9313 58.64C54.4879 58.0575 54.2111 57.2627 54.2111 56.3992C54.2111 55.5569 54.4744 54.7783 54.8979 54.2008L54.9313 54.1532ZM56.8995 54.4128C56.5756 54.4128 56.2653 54.6089 56.0304 54.9162L56.0026 54.948C55.7393 55.3133 55.5735 55.8273 55.5735 56.3993C55.5735 56.9874 55.7479 57.5119 56.0275 57.8826C56.2653 58.1898 56.5756 58.3805 56.8995 58.3805C57.2234 58.3805 57.5338 58.1899 57.7664 57.8826L57.7935 57.8456C58.0596 57.4799 58.2227 56.9715 58.2227 56.3993C58.2227 55.806 58.0483 55.2817 57.7685 54.9162C57.5338 54.6087 57.2235 54.4128 56.8995 54.4128ZM50.9331 53.7454C50.9331 53.3852 51.2377 53.0938 51.6115 53.0938C51.9881 53.0938 52.2927 53.3852 52.2927 53.7454V59.0533C52.2927 59.4136 51.9881 59.7052 51.6115 59.7052C51.2379 59.7052 50.9331 59.4136 50.9331 59.0533V53.7454ZM64.7351 54.1532C65.225 53.5124 65.9202 53.1097 66.7034 53.1097C67.4843 53.1097 68.1819 53.5122 68.6693 54.1532C69.1122 54.7413 69.3889 55.5357 69.3889 56.3993C69.3889 57.2417 69.1263 58.0204 68.7027 58.5977L68.6693 58.6454C68.1819 59.2862 67.4843 59.6837 66.7034 59.6837C65.9202 59.6837 65.225 59.2864 64.7351 58.6401C64.2918 58.0576 64.0177 57.2629 64.0177 56.3993C64.0177 55.557 64.2781 54.7785 64.7045 54.2009L64.7351 54.1532ZM66.7034 54.4128C66.3796 54.4128 66.0698 54.6089 65.8342 54.9162L65.8065 54.948C65.5409 55.3133 65.38 55.8273 65.38 56.3993C65.38 56.9874 65.5515 57.5119 65.8341 57.8826C66.0696 58.1898 66.3794 58.3805 66.7032 58.3805C67.027 58.3805 67.3345 58.1899 67.5701 57.8826L67.5979 57.8456C67.8634 57.4799 68.027 56.9715 68.027 56.3993C68.027 55.806 67.8526 55.2817 67.573 54.9162C67.3347 54.6087 67.0272 54.4128 66.7034 54.4128ZM60.734 53.7454C60.734 53.3852 61.0386 53.0938 61.4152 53.0938C61.7916 53.0938 62.0964 53.3852 62.0964 53.7454V59.0533C62.0964 59.4136 61.7918 59.7052 61.4152 59.7052C61.0386 59.7052 60.734 59.4136 60.734 59.0533V53.7454ZM74.5387 54.1532C75.0291 53.5124 75.7239 53.1097 76.5075 53.1097C77.2878 53.1097 77.9832 53.5122 78.473 54.1532C78.9164 54.7359 79.1932 55.5357 79.1932 56.3993C79.1932 57.2629 78.9164 58.0575 78.473 58.6401C77.9832 59.2864 77.2878 59.6837 76.5075 59.6837C75.7239 59.6837 75.0291 59.2864 74.5387 58.6401C74.0959 58.0576 73.822 57.2629 73.822 56.3993C73.822 55.557 74.0817 54.7785 74.5053 54.2009L74.5387 54.1532ZM76.5077 54.4128C76.1837 54.4128 75.8734 54.6089 75.6379 54.9162L75.6101 54.948C75.3473 55.3133 75.181 55.8273 75.181 56.3993C75.181 56.9874 75.3559 57.5119 75.635 57.8826C75.8734 58.1898 76.1835 58.3805 76.5075 58.3805C76.8313 58.3805 77.1411 58.1899 77.3767 57.8826C77.6592 57.5119 77.8307 56.9872 77.8307 56.3993C77.8307 55.806 77.6563 55.2817 77.3767 54.9162C77.1411 54.6087 76.8313 54.4128 76.5077 54.4128ZM70.5385 53.7454C70.5385 53.3852 70.8452 53.0938 71.219 53.0938C71.5956 53.0938 71.9004 53.3852 71.9004 53.7454V59.0533C71.9004 59.4136 71.5956 59.7052 71.219 59.7052C70.8454 59.7052 70.5385 59.4136 70.5385 59.0533V53.7454ZM84.3454 54.1532C84.8357 53.5124 85.5306 53.1097 86.3115 53.1097C87.0952 53.1097 87.7899 53.5122 88.2775 54.1532C88.7204 54.7413 88.9972 55.5357 88.9972 56.3993C88.9972 57.2417 88.7339 58.015 88.3104 58.5977L88.2775 58.64C87.7901 59.2863 87.0953 59.6835 86.3115 59.6835C85.5306 59.6835 84.8359 59.2863 84.3454 58.64C83.8998 58.0575 83.6258 57.2627 83.6258 56.3992C83.6258 55.5356 83.8998 54.736 84.3454 54.1532ZM86.3113 54.4128C85.9846 54.4128 85.6744 54.6089 85.4394 54.9162C85.1597 55.2817 84.9854 55.8061 84.9854 56.3993C84.9854 56.9874 85.1597 57.5119 85.4394 57.8826C85.6744 58.1898 85.9846 58.3805 86.3113 58.3805C86.6353 58.3805 86.9456 58.1899 87.1776 57.8826L87.2081 57.8456C87.4716 57.4799 87.6345 56.9715 87.6345 56.3993C87.6345 55.806 87.4603 55.2817 87.1805 54.9162C86.9456 54.6087 86.6353 54.4128 86.3113 54.4128ZM80.3422 53.7454C80.3422 53.3852 80.6495 53.0938 81.0233 53.0938C81.3999 53.0938 81.704 53.3852 81.704 53.7454V59.0533C81.704 59.4136 81.3999 59.7052 81.0233 59.7052C80.6497 59.7052 80.3422 59.4136 80.3422 59.0533V53.7454ZM94.147 54.1532C94.6366 53.5124 95.3315 53.1097 96.1152 53.1097C96.8987 53.1097 97.5936 53.5122 98.0811 54.1532C98.5239 54.7413 98.8009 55.5357 98.8009 56.3993C98.8009 57.2417 98.5381 58.015 98.1141 58.5977L98.0811 58.64C97.5937 59.2863 96.8988 59.6835 96.1152 59.6835C95.3315 59.6835 94.6366 59.2863 94.147 58.64C93.7036 58.0575 93.4296 57.2627 93.4296 56.3992C93.4296 55.5569 93.6929 54.7783 94.1165 54.2008L94.147 54.1532ZM96.1152 54.4128C95.7912 54.4128 95.4809 54.6089 95.2459 54.9162L95.2181 54.948C94.9548 55.3133 94.7889 55.8273 94.7889 56.3993C94.7889 56.9874 94.9634 57.5119 95.2459 57.8826C95.4809 58.1898 95.7912 58.3805 96.1152 58.3805C96.439 58.3805 96.7494 58.1899 96.9821 57.8826L97.0121 57.8456C97.2754 57.4799 97.4385 56.9715 97.4385 56.3993C97.4385 55.806 97.2641 55.2817 96.9845 54.9162C96.7494 54.6087 96.439 54.4128 96.1152 54.4128ZM90.1458 53.7454C90.1458 53.3852 90.4533 53.0938 90.8272 53.0938C91.2037 53.0938 91.5084 53.3852 91.5084 53.7454V59.0533C91.5084 59.4136 91.2037 59.7052 90.8272 59.7052C90.4535 59.7052 90.1458 59.4136 90.1458 59.0533V53.7454ZM54.9313 64.7002C55.4182 64.0593 56.1159 63.6565 56.8995 63.6565C57.6832 63.6565 58.3779 64.0592 58.8682 64.7002C59.3082 65.2829 59.5851 66.0828 59.5851 66.9463C59.5851 67.7886 59.3224 68.562 58.8983 69.1447L58.8682 69.187C58.3779 69.8334 57.6832 70.2305 56.8995 70.2305C56.1159 70.2305 55.4182 69.8334 54.9313 69.187C54.4879 68.6043 54.2111 67.8097 54.2111 66.9461C54.2111 66.104 54.4744 65.3251 54.8979 64.7477L54.9313 64.7002ZM56.8995 64.9598C56.5756 64.9598 56.2653 65.1558 56.0304 65.463L56.0026 65.4949C55.7393 65.8603 55.5735 66.3743 55.5735 66.9463C55.5735 67.5343 55.7479 68.0588 56.0275 68.4242C56.2653 68.7367 56.5756 68.9275 56.8995 68.9275C57.2234 68.9275 57.5338 68.7369 57.7664 68.4242L57.7935 68.3925C58.0596 68.0269 58.2227 67.5132 58.2227 66.9463C58.2227 66.353 58.0483 65.8286 57.7685 65.463C57.5338 65.1558 57.2235 64.9598 56.8995 64.9598ZM50.9331 64.2924C50.9331 63.9321 51.2377 63.6409 51.6115 63.6409C51.9881 63.6409 52.2927 63.9321 52.2927 64.2924V69.6003C52.2927 69.9606 51.9881 70.252 51.6115 70.252C51.2379 70.252 50.9331 69.9606 50.9331 69.6003V64.2924ZM64.7351 64.7002C65.225 64.0593 65.9202 63.6565 66.7034 63.6565C67.4843 63.6565 68.1819 64.0592 68.6693 64.7002C69.1122 65.2829 69.3889 66.0828 69.3889 66.9463C69.3889 67.7886 69.1263 68.562 68.7027 69.1447L68.6693 69.1924C68.1819 69.8334 67.4843 70.2307 66.7034 70.2307C65.9202 70.2307 65.225 69.8335 64.7351 69.1871C64.2918 68.6044 64.0177 67.8099 64.0177 66.9463C64.0177 66.1041 64.2781 65.3253 64.7045 64.7479L64.7351 64.7002ZM66.7034 64.9598C66.3796 64.9598 66.0698 65.1558 65.8342 65.463L65.8065 65.4949C65.5409 65.8603 65.38 66.3743 65.38 66.9463C65.38 67.5343 65.5515 68.0588 65.8341 68.4242C66.0696 68.7367 66.3794 68.9275 66.7032 68.9275C67.027 68.9275 67.3345 68.7369 67.5701 68.4296L67.5979 68.3925C67.8634 68.0269 68.027 67.5183 68.027 66.9463C68.027 66.353 67.8526 65.8286 67.573 65.463C67.3347 65.1558 67.0272 64.9598 66.7034 64.9598ZM60.734 64.2924C60.734 63.9321 61.0386 63.6409 61.4152 63.6409C61.7916 63.6409 62.0964 63.9321 62.0964 64.2924V69.6003C62.0964 69.9606 61.7918 70.252 61.4152 70.252C61.0386 70.252 60.734 69.9606 60.734 69.6003V64.2924ZM74.5387 64.7002C75.0291 64.0593 75.7239 63.6565 76.5075 63.6565C77.2878 63.6565 77.9832 64.0592 78.473 64.7002C78.9164 65.2829 79.1932 66.0828 79.1932 66.9463C79.1932 67.8099 78.9164 68.6043 78.473 69.1871C77.9832 69.8335 77.2878 70.2307 76.5075 70.2307C75.7239 70.2307 75.0291 69.8335 74.5387 69.1871C74.0959 68.6044 73.822 67.8099 73.822 66.9463C73.822 66.1041 74.0817 65.3253 74.5053 64.7479L74.5387 64.7002ZM76.5077 64.9598C76.1837 64.9598 75.8734 65.1558 75.6379 65.463L75.6101 65.4949C75.3473 65.8603 75.181 66.3743 75.181 66.9463C75.181 67.5343 75.3559 68.0588 75.635 68.4242C75.8734 68.7367 76.1835 68.9275 76.5075 68.9275C76.8313 68.9275 77.1411 68.7369 77.3767 68.4242C77.6592 68.0588 77.8307 67.5342 77.8307 66.9463C77.8307 66.353 77.6563 65.8286 77.3767 65.463C77.1411 65.1506 76.8313 64.9598 76.5077 64.9598ZM70.5385 64.2924C70.5385 63.9321 70.8452 63.6409 71.219 63.6409C71.5956 63.6409 71.9004 63.9321 71.9004 64.2924V69.6003C71.9004 69.9606 71.5956 70.252 71.219 70.252C70.8454 70.252 70.5385 69.9606 70.5385 69.6003V64.2924ZM84.3454 64.7002C84.8357 64.0593 85.5306 63.6565 86.3115 63.6565C87.0952 63.6565 87.7899 64.0592 88.2775 64.7002C88.7204 65.2829 88.9972 66.0828 88.9972 66.9463C88.9972 67.7886 88.7339 68.562 88.3104 69.1447L88.2775 69.187C87.7901 69.8334 87.0953 70.2305 86.3115 70.2305C85.5306 70.2305 84.8359 69.8334 84.3454 69.187C83.8998 68.6043 83.6258 67.8097 83.6258 66.9461C83.6258 66.0828 83.8998 65.283 84.3454 64.7002ZM86.3113 64.9598C85.9846 64.9598 85.6744 65.1506 85.4394 65.463C85.1597 65.8286 84.9854 66.3531 84.9854 66.9463C84.9854 67.5343 85.1597 68.0588 85.4394 68.4242C85.6744 68.7367 85.9846 68.9275 86.3113 68.9275C86.6353 68.9275 86.9456 68.7369 87.1776 68.4242L87.2081 68.3925C87.4716 68.0269 87.6345 67.5132 87.6345 66.9463C87.6345 66.353 87.4603 65.8286 87.1805 65.463C86.9456 65.1558 86.6353 64.9598 86.3113 64.9598ZM80.3422 64.2924C80.3422 63.9321 80.6495 63.6409 81.0233 63.6409C81.3999 63.6409 81.704 63.9321 81.704 64.2924V69.6003C81.704 69.9606 81.3999 70.252 81.0233 70.252C80.6497 70.252 80.3422 69.9606 80.3422 69.6003V64.2924ZM94.147 64.7002C94.6366 64.0593 95.3315 63.6565 96.1152 63.6565C96.8987 63.6565 97.5936 64.0592 98.0811 64.7002C98.5239 65.2829 98.8009 66.0828 98.8009 66.9463C98.8009 67.7886 98.5381 68.562 98.1141 69.1447L98.0811 69.187C97.5937 69.8334 96.8988 70.2305 96.1152 70.2305C95.3315 70.2305 94.6366 69.8334 94.147 69.187C93.7036 68.6043 93.4296 67.8097 93.4296 66.9461C93.4296 66.104 93.6929 65.3251 94.1165 64.7477L94.147 64.7002ZM96.1152 64.9598C95.7912 64.9598 95.4809 65.1558 95.2459 65.463L95.2181 65.4949C94.9548 65.8603 94.7889 66.3743 94.7889 66.9463C94.7889 67.5343 94.9634 68.0588 95.2459 68.4242C95.4809 68.7367 95.7912 68.9275 96.1152 68.9275C96.439 68.9275 96.7494 68.7369 96.9821 68.4242L97.0121 68.3925C97.2754 68.0269 97.4385 67.5132 97.4385 66.9463C97.4385 66.353 97.2641 65.8286 96.9845 65.463C96.7494 65.1558 96.439 64.9598 96.1152 64.9598ZM90.1458 64.2924C90.1458 63.9321 90.4533 63.6409 90.8272 63.6409C91.2037 63.6409 91.5084 63.9321 91.5084 64.2924V69.6003C91.5084 69.9606 91.2037 70.252 90.8272 70.252C90.4535 70.252 90.1458 69.9606 90.1458 69.6003V64.2924ZM54.9313 75.2472C55.4182 74.6063 56.1159 74.2034 56.8995 74.2034C57.6832 74.2034 58.3779 74.6061 58.8682 75.2472C59.3082 75.8298 59.5851 76.6298 59.5851 77.4934C59.5851 78.3303 59.3224 79.109 58.8983 79.6916L58.8682 79.7339C58.3779 80.3803 57.6832 80.7775 56.8995 80.7775C56.1159 80.7775 55.4182 80.3803 54.9313 79.7339C54.4879 79.1514 54.2111 78.3567 54.2111 77.4932C54.2111 76.651 54.4744 75.8721 54.8979 75.2947L54.9313 75.2472ZM56.8995 75.5068C56.5756 75.5068 56.2653 75.7028 56.0304 76.0101L56.0026 76.0419C55.7393 76.4074 55.5735 76.9212 55.5735 77.4934C55.5735 78.0813 55.7479 78.6058 56.0275 78.9711C56.2653 79.2837 56.5756 79.4745 56.8995 79.4745C57.2234 79.4745 57.5338 79.2838 57.7664 78.9711L57.7935 78.9395C58.0596 78.574 58.2227 78.0602 58.2227 77.4934C58.2227 76.9001 58.0483 76.3756 57.7685 76.0101C57.5338 75.7028 57.2235 75.5068 56.8995 75.5068ZM50.9331 74.8394C50.9331 74.4791 51.2377 74.1879 51.6115 74.1879C51.9881 74.1879 52.2927 74.4791 52.2927 74.8394V80.1473C52.2927 80.5075 51.9881 80.7989 51.6115 80.7989C51.2379 80.7989 50.9331 80.5075 50.9331 80.1473V74.8394ZM64.7351 75.2472C65.225 74.6063 65.9202 74.2034 66.7034 74.2034C67.4843 74.2034 68.1819 74.6061 68.6693 75.2472C69.1122 75.8298 69.3889 76.6298 69.3889 77.4934C69.3889 78.3355 69.1263 79.109 68.7027 79.6916L68.6693 79.7393C68.1819 80.3803 67.4843 80.7776 66.7034 80.7776C65.9202 80.7776 65.225 80.3805 64.7351 79.7341C64.2918 79.1516 64.0177 78.3568 64.0177 77.4934C64.0177 76.6511 64.2781 75.8723 64.7045 75.2948L64.7351 75.2472ZM66.7034 75.5068C66.3796 75.5068 66.0698 75.7028 65.8342 76.0101L65.8065 76.0419C65.5409 76.4074 65.38 76.9212 65.38 77.4934C65.38 78.0813 65.5515 78.6058 65.8341 78.9711C66.0696 79.2837 66.3794 79.4745 66.7032 79.4745C67.027 79.4745 67.3345 79.2838 67.5701 78.9765L67.5979 78.9395C67.8634 78.574 68.027 78.0654 68.027 77.4934C68.027 76.9001 67.8526 76.3756 67.573 76.0101C67.3347 75.7028 67.0272 75.5068 66.7034 75.5068ZM60.734 74.8394C60.734 74.4791 61.0386 74.1879 61.4152 74.1879C61.7916 74.1879 62.0964 74.4791 62.0964 74.8394V80.1473C62.0964 80.5075 61.7918 80.7989 61.4152 80.7989C61.0386 80.7989 60.734 80.5075 60.734 80.1473V74.8394ZM74.5387 75.2472C75.0291 74.6063 75.7239 74.2034 76.5075 74.2034C77.2878 74.2034 77.9832 74.6061 78.473 75.2472C78.9164 75.8298 79.1932 76.6246 79.1932 77.4934C79.1932 78.3568 78.9164 79.1514 78.473 79.7341C77.9832 80.3805 77.2878 80.7776 76.5075 80.7776C75.7239 80.7776 75.0291 80.3805 74.5387 79.7341C74.0959 79.1516 73.822 78.3568 73.822 77.4934C73.822 76.6511 74.0817 75.8723 74.5053 75.2948L74.5387 75.2472ZM76.5077 75.5068C76.1837 75.5068 75.8734 75.7028 75.6379 76.0101L75.6101 76.0419C75.3473 76.4074 75.181 76.9212 75.181 77.4934C75.181 78.0813 75.3559 78.6058 75.635 78.9711C75.8734 79.2837 76.1835 79.4745 76.5075 79.4745C76.8313 79.4745 77.1411 79.2838 77.3767 78.9711C77.6592 78.6058 77.8307 78.0812 77.8307 77.4934C77.8307 76.9001 77.6563 76.3756 77.3767 76.0101C77.1411 75.6974 76.8313 75.5068 76.5077 75.5068ZM70.5385 74.8394C70.5385 74.4791 70.8452 74.1879 71.219 74.1879C71.5956 74.1879 71.9004 74.4791 71.9004 74.8394V80.1473C71.9004 80.5075 71.5956 80.7989 71.219 80.7989C70.8454 80.7989 70.5385 80.5075 70.5385 80.1473V74.8394ZM84.3454 75.2472C84.8357 74.6063 85.5306 74.2034 86.3115 74.2034C87.0952 74.2034 87.7899 74.6061 88.2775 75.2472C88.7204 75.8298 88.9972 76.6298 88.9972 77.4934C88.9972 78.3303 88.7339 79.109 88.3104 79.6916L88.2775 79.7339C87.7901 80.3803 87.0953 80.7775 86.3115 80.7775C85.5306 80.7775 84.8359 80.3803 84.3454 79.7339C83.8998 79.1514 83.6258 78.3567 83.6258 77.4932C83.6258 76.6246 83.8998 75.83 84.3454 75.2472ZM86.3113 75.5068C85.9846 75.5068 85.6744 75.6974 85.4394 76.0101C85.1597 76.3756 84.9854 76.9002 84.9854 77.4934C84.9854 78.0813 85.1597 78.6058 85.4394 78.9711C85.6744 79.2837 85.9846 79.4745 86.3113 79.4745C86.6353 79.4745 86.9456 79.2838 87.1776 78.9711L87.2081 78.9395C87.4716 78.574 87.6345 78.0602 87.6345 77.4934C87.6345 76.9001 87.4603 76.3756 87.1805 76.0101C86.9456 75.7028 86.6353 75.5068 86.3113 75.5068ZM80.3422 74.8394C80.3422 74.4791 80.6495 74.1879 81.0233 74.1879C81.3999 74.1879 81.704 74.4791 81.704 74.8394V80.1473C81.704 80.5075 81.3999 80.7989 81.0233 80.7989C80.6497 80.7989 80.3422 80.5075 80.3422 80.1473V74.8394ZM94.147 75.2472C94.6366 74.6063 95.3315 74.2034 96.1152 74.2034C96.8987 74.2034 97.5936 74.6061 98.0811 75.2472C98.5239 75.8298 98.8009 76.6298 98.8009 77.4934C98.8009 78.3303 98.5381 79.109 98.1141 79.6916L98.0811 79.7339C97.5937 80.3803 96.8988 80.7775 96.1152 80.7775C95.3315 80.7775 94.6366 80.3803 94.147 79.7339C93.7036 79.1514 93.4296 78.3567 93.4296 77.4932C93.4296 76.651 93.6929 75.8721 94.1165 75.2947L94.147 75.2472ZM96.1152 75.5068C95.7912 75.5068 95.4809 75.7028 95.2459 76.0101L95.2181 76.0419C94.9548 76.4074 94.7889 76.9212 94.7889 77.4934C94.7889 78.0813 94.9634 78.6058 95.2459 78.9711C95.4809 79.2837 95.7912 79.4745 96.1152 79.4745C96.439 79.4745 96.7494 79.2838 96.9821 78.9711L97.0121 78.9395C97.2754 78.574 97.4385 78.0602 97.4385 77.4934C97.4385 76.9001 97.2641 76.3756 96.9845 76.0101C96.7494 75.7028 96.439 75.5068 96.1152 75.5068ZM90.1458 74.8394C90.1458 74.4791 90.4533 74.1879 90.8272 74.1879C91.2037 74.1879 91.5084 74.4791 91.5084 74.8394V80.1473C91.5084 80.5075 91.2037 80.7989 90.8272 80.7989C90.4535 80.7989 90.1458 80.5075 90.1458 80.1473V74.8394ZM54.9313 85.7941C55.4182 85.1533 56.1159 84.7506 56.8995 84.7506C57.6832 84.7506 58.3779 85.1531 58.8682 85.7941C59.3082 86.3768 59.5851 87.1766 59.5851 88.0404C59.5851 88.8825 59.3224 89.6559 58.8983 90.2386L58.8682 90.281C58.3779 90.9273 57.6832 91.3246 56.8995 91.3246C56.1159 91.3246 55.4182 90.9273 54.9313 90.281C54.4879 89.6982 54.2111 88.9036 54.2111 88.0402C54.2111 87.1978 54.4744 86.4191 54.8979 85.8417L54.9313 85.7941ZM56.8995 86.0537C56.5756 86.0537 56.2653 86.2498 56.0304 86.5571L56.0026 86.5889C55.7393 86.9542 55.5735 87.4682 55.5735 88.0404C55.5735 88.6283 55.7479 89.1527 56.0275 89.5181C56.2653 89.8307 56.5756 90.0214 56.8995 90.0214C57.2234 90.0214 57.5338 89.8308 57.7664 89.5181L57.7935 89.4865C58.0596 89.1208 58.2227 88.6125 58.2227 88.0404C58.2227 87.4469 58.0483 86.9226 57.7685 86.5571C57.5338 86.2498 57.2235 86.0537 56.8995 86.0537ZM50.9331 85.3863C50.9331 85.0261 51.2377 84.7347 51.6115 84.7347C51.9881 84.7347 52.2927 85.0261 52.2927 85.3863V90.6942C52.2927 91.0494 51.9881 91.3459 51.6115 91.3459C51.2379 91.3459 50.9331 91.0494 50.9331 90.6942V85.3863ZM64.7351 85.7941C65.225 85.1533 65.9202 84.7506 66.7034 84.7506C67.4843 84.7506 68.1819 85.1531 68.6693 85.7941C69.1122 86.3768 69.3889 87.1766 69.3889 88.0404C69.3889 88.8825 69.1263 89.6559 68.7027 90.2386L68.6693 90.281C68.1819 90.9273 67.4843 91.3246 66.7034 91.3246C65.9202 91.3246 65.225 90.9273 64.7351 90.281C64.2918 89.6982 64.0177 88.9036 64.0177 88.0402C64.0177 87.1978 64.2781 86.4191 64.7045 85.8417L64.7351 85.7941ZM66.7034 86.0537C66.3796 86.0537 66.0698 86.2498 65.8342 86.5571L65.8065 86.5889C65.5409 86.9542 65.38 87.4682 65.38 88.0404C65.38 88.6283 65.5515 89.1527 65.8341 89.5181C66.0696 89.8307 66.3794 90.0214 66.7032 90.0214C67.027 90.0214 67.3345 89.8308 67.5701 89.5181L67.5979 89.4865C67.8634 89.1208 68.027 88.6125 68.027 88.0404C68.027 87.4469 67.8526 86.9226 67.573 86.5571C67.3347 86.2498 67.0272 86.0537 66.7034 86.0537ZM60.734 85.3863C60.734 85.0261 61.0386 84.7347 61.4152 84.7347C61.7916 84.7347 62.0964 85.0261 62.0964 85.3863V90.6942C62.0964 91.0494 61.7918 91.3459 61.4152 91.3459C61.0386 91.3459 60.734 91.0494 60.734 90.6942V85.3863ZM74.5387 85.7941C75.0291 85.1533 75.7239 84.7506 76.5075 84.7506C77.2878 84.7506 77.9832 85.1531 78.473 85.7941C78.9164 86.3768 79.1932 87.1715 79.1932 88.0404C79.1932 88.9038 78.9164 89.6982 78.473 90.2812C77.9832 90.9275 77.2878 91.3247 76.5075 91.3247C75.7239 91.3247 75.0291 90.9275 74.5387 90.2812C74.0959 89.6984 73.822 88.9038 73.822 88.0404C73.822 87.1979 74.0817 86.4192 74.5053 85.8418L74.5387 85.7941ZM76.5077 86.0537C76.1837 86.0537 75.8734 86.2498 75.6379 86.5571L75.6101 86.5889C75.3473 86.9542 75.181 87.4682 75.181 88.0404C75.181 88.6283 75.3559 89.1527 75.635 89.5181C75.8734 89.8307 76.1835 90.0214 76.5075 90.0214C76.8313 90.0214 77.1411 89.8308 77.3767 89.5181C77.6592 89.1527 77.8307 88.6281 77.8307 88.0404C77.8307 87.4469 77.6563 86.9226 77.3767 86.5571C77.1411 86.2498 76.8313 86.0537 76.5077 86.0537ZM70.5385 85.3863C70.5385 85.0261 70.8452 84.7347 71.219 84.7347C71.5956 84.7347 71.9004 85.0261 71.9004 85.3863V90.6942C71.9004 91.0494 71.5956 91.3459 71.219 91.3459C70.8454 91.3459 70.5385 91.0494 70.5385 90.6942V85.3863ZM84.3454 85.7941C84.8357 85.1533 85.5306 84.7506 86.3115 84.7506C87.0952 84.7506 87.7899 85.1531 88.2775 85.7941C88.7204 86.3768 88.9972 87.1766 88.9972 88.0404C88.9972 88.8825 88.7339 89.6559 88.3104 90.2386L88.2775 90.281C87.7901 90.9273 87.0953 91.3246 86.3115 91.3246C85.5306 91.3246 84.8359 90.9273 84.3454 90.281C83.8998 89.6982 83.6258 88.9036 83.6258 88.0402C83.6258 87.1715 83.8998 86.3769 84.3454 85.7941ZM86.3113 86.0537C85.9846 86.0537 85.6744 86.2498 85.4394 86.5571C85.1597 86.9226 84.9854 87.447 84.9854 88.0404C84.9854 88.6283 85.1597 89.1527 85.4394 89.5181C85.6744 89.8307 85.9846 90.0214 86.3113 90.0214C86.6353 90.0214 86.9456 89.8308 87.1776 89.5181L87.2081 89.4865C87.4716 89.1208 87.6345 88.6125 87.6345 88.0404C87.6345 87.4469 87.4603 86.9226 87.1805 86.5571C86.9456 86.2498 86.6353 86.0537 86.3113 86.0537ZM80.3422 85.3863C80.3422 85.0261 80.6495 84.7347 81.0233 84.7347C81.3999 84.7347 81.704 85.0261 81.704 85.3863V90.6942C81.704 91.0494 81.3999 91.3459 81.0233 91.3459C80.6497 91.3459 80.3422 91.0494 80.3422 90.6942V85.3863ZM94.147 85.7941C94.6366 85.1533 95.3315 84.7506 96.1152 84.7506C96.8987 84.7506 97.5936 85.1531 98.0811 85.7941C98.5239 86.3768 98.8009 87.1766 98.8009 88.0404C98.8009 88.8825 98.5381 89.6559 98.1141 90.2386L98.0811 90.281C97.5937 90.9273 96.8988 91.3246 96.1152 91.3246C95.3315 91.3246 94.6366 90.9273 94.147 90.281C93.7036 89.6982 93.4296 88.9036 93.4296 88.0402C93.4296 87.1978 93.6929 86.4191 94.1165 85.8417L94.147 85.7941ZM96.1152 86.0537C95.7912 86.0537 95.4809 86.2498 95.2459 86.5571L95.2181 86.5889C94.9548 86.9542 94.7889 87.4682 94.7889 88.0404C94.7889 88.6283 94.9634 89.1527 95.2459 89.5181C95.4809 89.8307 95.7912 90.0214 96.1152 90.0214C96.439 90.0214 96.7494 89.8308 96.9821 89.5181L97.0121 89.4865C97.2754 89.1208 97.4385 88.6125 97.4385 88.0404C97.4385 87.4469 97.2641 86.9226 96.9845 86.5571C96.7494 86.2498 96.439 86.0537 96.1152 86.0537ZM90.1458 85.3863C90.1458 85.0261 90.4533 84.7347 90.8272 84.7347C91.2037 84.7347 91.5084 85.0261 91.5084 85.3863V90.6942C91.5084 91.0494 91.2037 91.3459 90.8272 91.3459C90.4535 91.3459 90.1458 91.0494 90.1458 90.6942V85.3863ZM36.7632 100.521C36.3867 100.521 36.082 100.229 36.082 99.8693C36.082 99.5091 36.3866 99.2175 36.7632 99.2175H89.6419C90.0156 99.2175 90.3233 99.5091 90.3233 99.8693C90.3233 100.229 90.0158 100.521 89.6419 100.521H36.7632ZM67.7282 103C67.3518 103 67.047 102.708 67.047 102.354C67.047 101.993 67.3516 101.702 67.7282 101.702H104.319C104.692 101.702 105 101.993 105 102.354C105 102.708 104.692 103 104.319 103H67.7282ZM34.6812 102.926C34.3046 102.926 34 102.634 34 102.274C34 101.914 34.3046 101.623 34.6812 101.623H52.0188C52.3952 101.623 52.6993 101.914 52.6993 102.274C52.6993 102.634 52.3952 102.926 52.0188 102.926H34.6812ZM43.4911 90.7047V33.5679V33.5518L43.4934 33.5359V33.52H43.4963V33.504L43.5076 33.4404C43.5681 33.1437 43.8451 32.9161 44.1719 32.9161L84.7639 32.9213L84.7057 32.0048L41.4505 32V90.7047H43.4911Z" fill="#1DBF73"/>
</svg>
