<svg width="140" height="140" viewBox="0 0 140 140" fill="none" xmlns="http://www.w3.org/2000/svg">
<circle cx="70" cy="70" r="70" fill="#C2FADF" fill-opacity="0.27"/>
<path d="M73.4411 72.9463L69.786 75.3073C69.6188 75.4153 69.4277 75.4693 69.2367 75.4693C69.0456 75.4693 68.8545 75.4153 68.6873 75.3073L65.0322 72.9463L46.8557 84.6867L41.3262 88.2585C41.7464 88.9847 42.531 89.4736 43.4303 89.4736H95.0429C95.9422 89.4736 96.7269 88.9847 97.147 88.2585L91.6175 84.6867L73.4411 72.9463Z" fill="#1DBF73"/>
<path d="M47.5156 59.221L69.2366 73.251L73.2841 70.6371C72.8451 70.7675 72.3867 70.8348 71.9266 70.8348C70.6776 70.8348 69.4966 70.3561 68.5999 69.4869L62.9161 63.9749C62.5622 64.1053 62.1871 64.1733 61.8097 64.1733C60.9989 64.1733 60.2318 63.8663 59.651 63.3358C58.9334 63.6363 58.1606 63.7934 57.383 63.7934C56.3163 63.7934 55.2908 63.5043 54.4022 62.9818C53.5137 62.4594 52.7628 61.7036 52.2452 60.7713L50.8301 58.2223C50.3295 57.3223 50.0801 56.3301 50.089 55.3281H43.43C42.9399 55.3281 42.4839 55.4739 42.1016 55.7242L42.7463 56.1406L47.5156 59.221Z" fill="#1DBF73"/>
<path d="M86.8249 57.6342C86.6022 58.4142 86.0886 59.0606 85.3791 59.4551C84.9287 59.7046 84.4192 59.8374 83.9057 59.8374C83.5631 59.8374 83.2285 59.7799 82.9143 59.6705C82.6 59.562 82.3051 59.4024 82.0435 59.1999L79.9731 59.6155L77.8898 60.0342L73.4883 60.9179L75.2525 62.6287C76.3484 63.6914 76.8627 65.1704 76.6619 66.6843C76.5379 67.6239 76.1516 68.4785 75.557 69.1686L90.9576 59.221L95.7268 56.1406L96.3716 55.7242C95.9893 55.4739 95.5332 55.3281 95.0432 55.3281H86.5617C86.9537 56.0361 87.0477 56.855 86.8249 57.6342Z" fill="#1DBF73"/>
<path d="M97.4512 57.4375L94.6899 59.2211L75.3066 71.7413L92.716 82.9857L97.4731 86.058V57.7583C97.4731 57.6497 97.465 57.542 97.4512 57.4375Z" fill="#1DBF73"/>
<path d="M63.1665 71.7413L43.7832 59.2211L41.0219 57.4375C41.0081 57.542 41 57.6497 41 57.7583V86.058L45.7571 82.9857L63.1665 71.7413Z" fill="#1DBF73"/>
<path d="M67.8125 37.7198L78.9414 57.7578L82.7787 56.9871C82.8002 56.9828 82.8203 56.976 82.8412 56.9705L83.0195 57.2914C83.291 57.7802 83.9074 57.9564 84.3963 57.6849C84.8851 57.4134 85.0613 56.797 84.7899 56.3081L81.1756 49.8006C83.8698 48.3043 84.8443 44.8951 83.348 42.2009C81.8517 39.5068 78.4425 38.5323 75.7483 40.0286L72.1341 33.521C71.8626 33.0322 71.2462 32.856 70.7573 33.1275C70.2685 33.3991 70.0923 34.0154 70.3638 34.5043L70.542 34.8252C70.5264 34.8401 70.51 34.8536 70.495 34.8695L67.8125 37.7198ZM81.5776 43.1843C82.5317 44.9023 81.9103 47.0762 80.1923 48.0304L76.7314 41.799C78.4494 40.8448 80.6234 41.4663 81.5776 43.1843Z" fill="#1DBF73"/>
<path d="M54.0158 59.7889C55.0475 61.6466 57.3898 62.3161 59.2475 61.2845L60.3096 60.6945L60.7815 61.5443C61.0964 62.1114 61.8115 62.3157 62.3786 62.0008L62.3907 61.9941C62.9742 61.6701 63.6947 61.816 64.1325 62.3196C64.1842 62.3792 64.2392 62.4372 64.2972 62.4935L70.0098 68.0339C70.8807 68.8785 72.2018 69.0534 73.2623 68.4644C74.8764 67.5679 75.1675 65.3679 73.8422 64.0824L69.3146 59.6913L76.8573 58.1764L66.3557 39.2678L58.6099 47.4983C58.4884 47.6274 58.4025 47.7796 58.3526 47.9413C58.3072 47.9595 58.2623 47.9797 58.2184 48.0041L55.4567 49.5379C54.8897 49.8528 54.6853 50.5679 55.0002 51.1349L55.1575 51.4182L54.0954 52.0081C52.2377 53.0398 51.5682 55.3821 52.5999 57.2397L54.0158 59.7889ZM55.0787 53.7783L56.1409 53.1884L59.3264 58.9241L58.2643 59.514C57.3858 60.002 56.2741 59.6842 55.7862 58.8057L54.3704 56.2565C53.8823 55.3779 54.2002 54.2663 55.0787 53.7783Z" fill="#1DBF73"/>
<path d="M83.1317 39.0158C83.3062 39.1349 83.5047 39.1919 83.7011 39.1919C84.0246 39.1919 84.3425 39.0371 84.5386 38.7496L86.9686 35.1856C87.2836 34.7236 87.1644 34.0937 86.7024 33.7787C86.2404 33.4636 85.6105 33.5828 85.2955 34.0449L82.8655 37.6089C82.5505 38.0709 82.6696 38.7008 83.1317 39.0158Z" fill="#1DBF73"/>
<path d="M89.8323 48.235C89.9772 48.3071 90.1312 48.3413 90.2827 48.3413C90.6548 48.3413 91.0129 48.1354 91.1899 47.7797C91.4391 47.2792 91.2353 46.6713 90.7347 46.4221L86.8731 44.4999C86.3725 44.2506 85.7646 44.4545 85.5155 44.9551C85.2663 45.4557 85.4701 46.0635 85.9707 46.3127L89.8323 48.235Z" fill="#1DBF73"/>
<path d="M84.7621 42.2897C84.9581 42.5771 85.2759 42.7318 85.5995 42.7318C85.796 42.7318 85.9945 42.6748 86.1691 42.5557L93.3576 37.6528C93.8196 37.3377 93.9386 36.7078 93.6236 36.2458C93.3085 35.7839 92.6785 35.6647 92.2166 35.9799L85.028 40.8828C84.5661 41.1978 84.447 41.8278 84.7621 42.2897Z" fill="#1DBF73"/>
</svg>
