<svg width="140" height="140" viewBox="0 0 140 140" fill="none" xmlns="http://www.w3.org/2000/svg">
<circle cx="70" cy="70" r="70" fill="#C2FADF" fill-opacity="0.27"/>
<path d="M94.3712 69.2972C94.373 65.6731 93.5808 62.0926 92.0502 58.8075C90.5196 55.5225 88.2878 52.6127 85.5118 50.2828L80.3528 39.6547C80.0606 39.0524 79.6047 38.5445 79.0373 38.1892C78.4699 37.8339 77.8139 37.6455 77.1445 37.6455H61.8557C61.1863 37.6455 60.5303 37.8339 59.9629 38.1892C59.3955 38.5445 58.9396 39.0524 58.6474 39.6547L53.4836 50.2828C50.7252 52.6029 48.5048 55.4957 46.9766 58.7602C45.4484 62.0246 44.6491 65.5826 44.634 69.187C44.619 72.7914 45.3886 76.356 46.8895 79.6331C48.3903 82.9102 50.5865 85.8214 53.3254 88.1645H53.2178L58.649 99.3447C58.9412 99.947 59.3971 100.455 59.9645 100.81C60.5319 101.166 61.1879 101.354 61.8573 101.354H77.1461C77.8155 101.354 78.4715 101.166 79.0389 100.81C79.6063 100.455 80.0622 99.947 80.3544 99.3447L85.784 88.1677H85.6764C88.4044 85.8384 90.5946 82.945 92.0957 79.6871C93.5968 76.4292 94.3732 72.8843 94.3712 69.2972ZM71.0473 88.7768V85.4545C71.0473 85.0441 70.8843 84.6506 70.5942 84.3604C70.304 84.0703 69.9105 83.9073 69.5001 83.9073C69.0898 83.9073 68.6962 84.0703 68.4061 84.3604C68.1159 84.6506 67.9529 85.0441 67.9529 85.4545V88.7768C63.8468 88.4578 59.9477 86.8442 56.817 84.1683L59.1663 81.819C59.3104 81.6753 59.4247 81.5047 59.5029 81.3168C59.581 81.129 59.6214 80.9275 59.6217 80.7241C59.622 80.5206 59.5822 80.3191 59.5046 80.131C59.427 79.9429 59.3131 79.7719 59.1694 79.6279C59.0258 79.4838 58.8551 79.3694 58.6673 79.2913C58.4794 79.2132 58.278 79.1728 58.0745 79.1725C57.8711 79.1722 57.6696 79.212 57.4815 79.2896C57.2934 79.3672 57.1224 79.481 56.9783 79.6247L54.629 81.9804C51.9539 78.8491 50.3404 74.9504 50.0206 70.8444H53.3428C53.7532 70.8444 54.1467 70.6814 54.4369 70.3913C54.727 70.1011 54.89 69.7076 54.89 69.2972C54.89 68.8869 54.727 68.4933 54.4369 68.2032C54.1467 67.913 53.7532 67.75 53.3428 67.75H50.0206C50.3399 63.6444 51.9534 59.746 54.629 56.6156L56.9783 58.9634C57.2697 59.2478 57.6613 59.4058 58.0684 59.4034C58.4755 59.4009 58.8653 59.2381 59.1531 58.9502C59.441 58.6624 59.6038 58.2726 59.6063 57.8655C59.6087 57.4584 59.4507 57.0668 59.1663 56.7754L56.817 54.4261C59.9477 51.7502 63.8468 50.1366 67.9529 49.8177V53.1399C67.9529 53.5503 68.1159 53.9438 68.4061 54.234C68.6962 54.5241 69.0898 54.6871 69.5001 54.6871C69.9105 54.6871 70.304 54.5241 70.5942 54.234C70.8843 53.9438 71.0473 53.5503 71.0473 53.1399V49.8177C75.1535 50.1366 79.0525 51.7502 82.1833 54.4261L79.8339 56.7754C79.6874 56.9185 79.5707 57.0891 79.4907 57.2776C79.4106 57.466 79.3687 57.6685 79.3675 57.8733C79.3663 58.078 79.4057 58.281 79.4835 58.4704C79.5613 58.6598 79.6759 58.8319 79.8206 58.9767C79.9654 59.1215 80.1375 59.2361 80.3269 59.3138C80.5163 59.3916 80.7193 59.4311 80.924 59.4298C81.1288 59.4286 81.3313 59.3867 81.5197 59.3066C81.7082 59.2266 81.8789 59.1099 82.0219 58.9634L84.3712 56.6156C87.0468 59.746 88.6603 63.6444 88.9797 67.75H85.6574C85.247 67.75 84.8535 67.913 84.5633 68.2032C84.2732 68.4933 84.1102 68.8869 84.1102 69.2972C84.1102 69.7076 84.2732 70.1011 84.5633 70.3913C84.8535 70.6814 85.247 70.8444 85.6574 70.8444H88.9797C88.6603 74.95 87.0468 78.8484 84.3712 81.9788L82.0219 79.6247C81.7306 79.3403 81.3389 79.1822 80.9318 79.1847C80.5247 79.1872 80.1349 79.35 79.8471 79.6378C79.5592 79.9257 79.3964 80.3154 79.3939 80.7225C79.3915 81.1297 79.5496 81.5213 79.8339 81.8127L82.1833 84.162C79.0533 86.8402 75.1542 88.456 71.0473 88.7768Z" fill="#1DBF73"/>
<path d="M77.2725 67.2345H71.5566V58.2533C71.5566 57.7062 71.3393 57.1815 70.9524 56.7946C70.5655 56.4077 70.0408 56.1904 69.4936 56.1904C68.9465 56.1904 68.4218 56.4077 68.0349 56.7946C67.648 57.1815 67.4307 57.7062 67.4307 58.2533V69.2975C67.4307 69.5676 67.4839 69.835 67.5872 70.0845C67.6906 70.3341 67.8421 70.5608 68.033 70.7518C68.224 70.9427 68.4507 71.0942 68.7003 71.1976C68.9498 71.3009 69.2172 71.3541 69.4873 71.3541H77.2598C77.807 71.3541 78.3317 71.1368 78.7186 70.7499C79.1054 70.363 79.3228 69.8383 79.3228 69.2912C79.3228 68.744 79.1054 68.2193 78.7186 67.8324C78.3317 67.4455 77.807 67.2282 77.2598 67.2282L77.2725 67.2345Z" fill="#1DBF73"/>
</svg>
