<svg width="215" height="58" viewBox="0 0 215 58" fill="none" xmlns="http://www.w3.org/2000/svg">
<path d="M17.8357 33.9293L22.5219 49.4016L38.6451 43.9965L51.7652 25.6707L38.8209 18.511L17.8357 33.9293ZM17.2206 32.0977L37.2305 17.6164L7.66332 1.14921L17.2206 32.0977ZM23.0073 1L22.9945 7.53379L36.726 15.3213L23.0073 1ZM50.8096 14.5545L40.5029 17.5348L52.3148 23.8509L50.8096 14.5545ZM1 56.5995L20.7879 49.9925L16.9661 37.3894L1 56.5995ZM52.8371 15.5432L54.3695 24.8083L82.4623 29.9896L52.8371 15.5432Z" fill="url(#paint0_linear_714_947)"/>
<path d="M17.7468 33.8084L17.6613 33.8712L17.6921 33.9727L22.3784 49.4451L22.4231 49.5929L22.5696 49.5438L38.6928 44.1387L38.7388 44.1233L38.7671 44.0838L51.8872 25.758L51.9853 25.621L51.8378 25.5395L38.8935 18.3797L38.8095 18.3332L38.7321 18.3901L17.7468 33.8084ZM17.0773 32.142L17.1391 32.3419L17.3086 32.2192L37.3184 17.738L37.5091 17.5999L37.3035 17.4854L7.73631 1.01816L7.40969 0.836255L7.52 1.19347L17.0773 32.142ZM23.1156 0.896237L22.858 0.627331L22.8573 0.999707L22.8445 7.5335L22.8443 7.62107L22.9205 7.66427L36.652 15.4518L36.8343 15.2175L23.1156 0.896237ZM50.9577 14.5305L50.9306 14.3634L50.7679 14.4104L40.4612 17.3907L40.1069 17.4932L40.4322 17.6671L52.2441 23.9832L52.5113 24.1261L52.4629 23.827L50.9577 14.5305ZM0.884642 56.5036L0.548117 56.9085L1.04751 56.7418L20.8354 50.1348L20.9737 50.0886L20.9314 49.949L17.1097 37.3459L17.0288 37.0793L16.8508 37.2935L0.884642 56.5036ZM52.9028 15.4084L52.6417 15.281L52.6891 15.5677L54.2215 24.8327L54.2387 24.9367L54.3423 24.9558L82.4351 30.1371L82.528 29.8548L52.9028 15.4084Z" stroke="#0D084D" stroke-width="0.3"/>
<path d="M59.5308 35.8411V38.1041H53.771V41.6889H58.1849V43.9119H53.771V49.8198H51V35.8411H59.5308Z" fill="black"/>
<path d="M64.2668 40.4473C64.623 39.8598 65.0849 39.3992 65.6523 39.0654C66.2329 38.7316 66.8927 38.5648 67.6316 38.5648V41.5087H66.8993C66.0284 41.5087 65.3686 41.7156 64.9199 42.1295C64.4845 42.5434 64.2668 43.2644 64.2668 44.2924V49.8198H61.4957V38.725H64.2668V40.4473Z" fill="black"/>
<path d="M79.6915 44.032C79.6915 44.4326 79.6651 44.7931 79.6123 45.1135H71.5961C71.6621 45.9146 71.9392 46.5421 72.4274 46.996C72.9156 47.4499 73.516 47.6769 74.2286 47.6769C75.2578 47.6769 75.9902 47.2296 76.4256 46.3351H79.4143C79.0977 47.4032 78.4907 48.2844 77.5934 48.9786C76.6961 49.6595 75.5943 50 74.2879 50C73.2323 50 72.2822 49.7664 71.4377 49.2991C70.6064 48.8184 69.9533 48.1442 69.4782 47.2764C69.0164 46.4085 68.7855 45.4072 68.7855 44.2724C68.7855 43.1242 69.0164 42.1162 69.4782 41.2483C69.9401 40.3805 70.5866 39.713 71.4179 39.2457C72.2493 38.7784 73.2059 38.5447 74.2879 38.5447C75.3304 38.5447 76.2607 38.7717 77.0788 39.2256C77.9101 39.6796 78.5501 40.3271 78.9987 41.1682C79.4605 41.996 79.6915 42.9506 79.6915 44.032ZM76.8215 43.231C76.8083 42.51 76.551 41.9359 76.0495 41.5087C75.5481 41.0681 74.9345 40.8478 74.2088 40.8478C73.5226 40.8478 72.942 41.0614 72.467 41.4887C72.0051 41.9025 71.7214 42.4833 71.6159 43.231H76.8215Z" fill="black"/>
<path d="M91.9075 44.032C91.9075 44.4326 91.8811 44.7931 91.8283 45.1135H83.8121C83.8781 45.9146 84.1552 46.5421 84.6434 46.996C85.1317 47.4499 85.7321 47.6769 86.4446 47.6769C87.4738 47.6769 88.2062 47.2296 88.6416 46.3351H91.6304C91.3137 47.4032 90.7067 48.2844 89.8094 48.9786C88.9121 49.6595 87.8103 50 86.504 50C85.4484 50 84.4983 49.7664 83.6538 49.2991C82.8225 48.8184 82.1693 48.1442 81.6943 47.2764C81.2324 46.4085 81.0015 45.4072 81.0015 44.2724C81.0015 43.1242 81.2324 42.1162 81.6943 41.2483C82.1561 40.3805 82.8027 39.713 83.634 39.2457C84.4653 38.7784 85.422 38.5447 86.504 38.5447C87.5464 38.5447 88.4767 38.7717 89.2948 39.2256C90.1261 39.6796 90.7661 40.3271 91.2147 41.1682C91.6766 41.996 91.9075 42.9506 91.9075 44.032ZM89.0375 43.231C89.0243 42.51 88.767 41.9359 88.2656 41.5087C87.7641 41.0681 87.1506 40.8478 86.4248 40.8478C85.7386 40.8478 85.1581 41.0614 84.683 41.4887C84.2212 41.9025 83.9375 42.4833 83.8319 43.231H89.0375Z" fill="black"/>
<path d="M96.7011 35V49.8198H93.9301V35H96.7011Z" fill="black"/>
<path d="M98.7264 44.2323C98.7264 43.1108 98.9441 42.1162 99.3795 41.2483C99.8282 40.3805 100.429 39.713 101.181 39.2457C101.946 38.7784 102.797 38.5447 103.734 38.5447C104.552 38.5447 105.265 38.7116 105.872 39.0454C106.492 39.3792 106.987 39.7997 107.356 40.3071V38.725H110.147V49.8198H107.356V48.1976C107 48.7183 106.505 49.1522 105.872 49.4993C105.251 49.8331 104.532 50 103.714 50C102.791 50 101.946 49.7597 101.181 49.279C100.429 48.7984 99.8282 48.1242 99.3795 47.2563C98.9441 46.3752 98.7264 45.3672 98.7264 44.2323ZM107.356 44.2724C107.356 43.5915 107.224 43.0107 106.96 42.53C106.696 42.036 106.34 41.6622 105.891 41.4085C105.443 41.1415 104.961 41.008 104.447 41.008C103.932 41.008 103.457 41.1348 103.021 41.3885C102.586 41.6422 102.23 42.016 101.953 42.51C101.689 42.9907 101.557 43.5648 101.557 44.2323C101.557 44.8999 101.689 45.4873 101.953 45.9947C102.23 46.4887 102.586 46.8692 103.021 47.1362C103.47 47.4032 103.945 47.5367 104.447 47.5367C104.961 47.5367 105.443 47.4099 105.891 47.1562C106.34 46.8892 106.696 46.5154 106.96 46.0347C107.224 45.5407 107.356 44.9533 107.356 44.2724Z" fill="black"/>
<path d="M118.93 38.5648C120.236 38.5648 121.292 38.9853 122.097 39.8264C122.902 40.6542 123.304 41.8158 123.304 43.3111V49.8198H120.533V43.6916C120.533 42.8104 120.315 42.1362 119.88 41.6689C119.444 41.1883 118.851 40.9479 118.099 40.9479C117.333 40.9479 116.726 41.1883 116.278 41.6689C115.842 42.1362 115.624 42.8104 115.624 43.6916V49.8198H112.853V38.725H115.624V40.1068C115.994 39.6262 116.462 39.2523 117.03 38.9853C117.61 38.7049 118.244 38.5648 118.93 38.5648Z" fill="black"/>
<path d="M125.227 44.2724C125.227 43.1242 125.458 42.1228 125.919 41.2684C126.381 40.4005 127.021 39.733 127.839 39.2657C128.657 38.785 129.594 38.5447 130.65 38.5447C132.009 38.5447 133.131 38.8919 134.015 39.5861C134.912 40.267 135.512 41.2283 135.816 42.47H132.827C132.669 41.9893 132.398 41.6155 132.016 41.3485C131.646 41.0681 131.184 40.9279 130.63 40.9279C129.838 40.9279 129.212 41.2216 128.75 41.8091C128.288 42.3832 128.057 43.2043 128.057 44.2724C128.057 45.3271 128.288 46.1482 128.75 46.7357C129.212 47.3097 129.838 47.5968 130.63 47.5968C131.752 47.5968 132.484 47.0895 132.827 46.0748H135.816C135.512 47.2764 134.912 48.231 134.015 48.9386C133.117 49.6462 131.996 50 130.65 50C129.594 50 128.657 49.7664 127.839 49.2991C127.021 48.8184 126.381 48.1509 125.919 47.2964C125.458 46.4286 125.227 45.4206 125.227 44.2724Z" fill="black"/>
<path d="M148.039 44.032C148.039 44.4326 148.013 44.7931 147.96 45.1135H139.944C140.01 45.9146 140.287 46.5421 140.775 46.996C141.264 47.4499 141.864 47.6769 142.577 47.6769C143.606 47.6769 144.338 47.2296 144.774 46.3351H147.762C147.446 47.4032 146.839 48.2844 145.941 48.9786C145.044 49.6595 143.942 50 142.636 50C141.58 50 140.63 49.7664 139.786 49.2991C138.954 48.8184 138.301 48.1442 137.826 47.2764C137.364 46.4085 137.133 45.4072 137.133 44.2724C137.133 43.1242 137.364 42.1162 137.826 41.2483C138.288 40.3805 138.935 39.713 139.766 39.2457C140.597 38.7784 141.554 38.5447 142.636 38.5447C143.678 38.5447 144.609 38.7717 145.427 39.2256C146.258 39.6796 146.898 40.3271 147.347 41.1682C147.808 41.996 148.039 42.9506 148.039 44.032ZM145.169 43.231C145.156 42.51 144.899 41.9359 144.397 41.5087C143.896 41.0681 143.282 40.8478 142.557 40.8478C141.871 40.8478 141.29 41.0614 140.815 41.4887C140.353 41.9025 140.069 42.4833 139.964 43.231H145.169Z" fill="black"/>
<path d="M176.35 35.8411L172.49 49.8198H169.224L166.631 39.8665L163.919 49.8198L160.673 49.8398L156.952 35.8411H159.921L162.356 46.6956L165.166 35.8411H168.254L170.906 46.6355L173.361 35.8411H176.35Z" fill="black"/>
<path d="M183.028 50C181.972 50 181.022 49.7664 180.178 49.2991C179.333 48.8184 178.667 48.1442 178.179 47.2764C177.704 46.4085 177.466 45.4072 177.466 44.2724C177.466 43.1375 177.71 42.1362 178.198 41.2684C178.7 40.4005 179.379 39.733 180.237 39.2657C181.095 38.785 182.052 38.5447 183.107 38.5447C184.163 38.5447 185.119 38.785 185.977 39.2657C186.835 39.733 187.508 40.4005 187.996 41.2684C188.497 42.1362 188.748 43.1375 188.748 44.2724C188.748 45.4072 188.491 46.4085 187.976 47.2764C187.475 48.1442 186.789 48.8184 185.918 49.2991C185.06 49.7664 184.097 50 183.028 50ZM183.028 47.5567C183.529 47.5567 183.998 47.4366 184.433 47.1963C184.882 46.9426 185.238 46.5688 185.502 46.0748C185.766 45.5808 185.898 44.98 185.898 44.2724C185.898 43.2176 185.621 42.4099 185.067 41.8491C184.526 41.275 183.859 40.988 183.068 40.988C182.276 40.988 181.609 41.275 181.068 41.8491C180.541 42.4099 180.277 43.2176 180.277 44.2724C180.277 45.3271 180.534 46.1415 181.049 46.7156C181.577 47.2764 182.236 47.5567 183.028 47.5567Z" fill="black"/>
<path d="M193.552 40.4473C193.908 39.8598 194.37 39.3992 194.937 39.0654C195.518 38.7316 196.178 38.5648 196.917 38.5648V41.5087H196.184C195.313 41.5087 194.654 41.7156 194.205 42.1295C193.77 42.5434 193.552 43.2644 193.552 44.2924V49.8198H190.781V38.725H193.552V40.4473Z" fill="black"/>
<path d="M201.554 35V49.8198H198.783V35H201.554Z" fill="black"/>
<path d="M203.579 44.2323C203.579 43.1108 203.797 42.1162 204.233 41.2483C204.681 40.3805 205.288 39.713 206.054 39.2457C206.819 38.7784 207.67 38.5447 208.607 38.5447C209.319 38.5447 209.999 38.7049 210.646 39.0254C211.292 39.3324 211.807 39.7463 212.189 40.267V35H215V49.8198H212.189V48.1776C211.846 48.725 211.365 49.1656 210.744 49.4993C210.124 49.8331 209.405 50 208.587 50C207.663 50 206.819 49.7597 206.054 49.279C205.288 48.7984 204.681 48.1242 204.233 47.2563C203.797 46.3752 203.579 45.3672 203.579 44.2323ZM212.209 44.2724C212.209 43.5915 212.077 43.0107 211.813 42.53C211.549 42.036 211.193 41.6622 210.744 41.4085C210.296 41.1415 209.814 41.008 209.3 41.008C208.785 41.008 208.31 41.1348 207.875 41.3885C207.439 41.6422 207.083 42.016 206.806 42.51C206.542 42.9907 206.41 43.5648 206.41 44.2323C206.41 44.8999 206.542 45.4873 206.806 45.9947C207.083 46.4887 207.439 46.8692 207.875 47.1362C208.323 47.4032 208.798 47.5367 209.3 47.5367C209.814 47.5367 210.296 47.4099 210.744 47.1562C211.193 46.8892 211.549 46.5154 211.813 46.0347C212.077 45.5407 212.209 44.9533 212.209 44.2724Z" fill="black"/>
<defs>
<linearGradient id="paint0_linear_714_947" x1="41.7311" y1="1" x2="41.7311" y2="56.5995" gradientUnits="userSpaceOnUse">
<stop offset="0.09375" stop-color="#B8E600"/>
<stop offset="0.537485" stop-color="#6CE172" stop-opacity="0.69"/>
<stop offset="0.9993" stop-color="#A6D56E" stop-opacity="0.722351"/>
<stop offset="0.9994" stop-color="#0CF579" stop-opacity="0.5"/>
<stop offset="0.9995" stop-color="#CCCE6B" stop-opacity="0.8"/>
<stop offset="1" stop-color="#FFC977" stop-opacity="0"/>
</linearGradient>
</defs>
</svg>
