<svg width="140" height="140" viewBox="0 0 140 140" fill="none" xmlns="http://www.w3.org/2000/svg">
<circle cx="70" cy="70" r="70" fill="#C2FADF" fill-opacity="0.27"/>
<path d="M97.6877 66.9062C97.6877 66.2349 97.4211 65.5911 96.9464 65.1164C96.4717 64.6417 95.8278 64.375 95.1565 64.375C94.4852 64.375 93.8413 64.6417 93.3666 65.1164C92.8919 65.5911 92.6252 66.2349 92.6252 66.9062C92.6252 72.9482 90.2251 78.7427 85.9528 83.015C81.6804 87.2873 75.886 89.6875 69.844 89.6875C63.802 89.6875 58.0075 87.2873 53.7352 83.015C49.4629 78.7427 47.0627 72.9482 47.0627 66.9062C47.0627 66.2349 46.7961 65.5911 46.3214 65.1164C45.8467 64.6417 45.2028 64.375 44.5315 64.375C43.8602 64.375 43.2163 64.6417 42.7416 65.1164C42.2669 65.5911 42.0002 66.2349 42.0002 66.9062C41.9714 73.8725 44.555 80.5966 49.241 85.7513C53.9271 90.9059 60.3752 94.1168 67.3127 94.75V107.406C67.3127 108.078 67.5794 108.721 68.0541 109.196C68.5288 109.671 69.1727 109.938 69.844 109.938C70.5153 109.938 71.1592 109.671 71.6339 109.196C72.1086 108.721 72.3752 108.078 72.3752 107.406V94.75C79.3127 94.1168 85.7609 90.9059 90.4469 85.7513C95.133 80.5966 97.7166 73.8725 97.6877 66.9062Z" fill="#1DBF73"/>
<path d="M69.8438 79.5625C73.8717 79.5625 77.7347 77.9624 80.5829 75.1142C83.4311 72.266 85.0312 68.403 85.0312 64.375V49.1875C85.0312 45.1595 83.4311 41.2965 80.5829 38.4483C77.7347 35.6001 73.8717 34 69.8438 34C65.8158 34 61.9528 35.6001 59.1046 38.4483C56.2564 41.2965 54.6562 45.1595 54.6562 49.1875V64.375C54.6562 68.403 56.2564 72.266 59.1046 75.1142C61.9528 77.9624 65.8158 79.5625 69.8438 79.5625Z" fill="#1DBF73"/>
</svg>
