<svg width="140" height="140" viewBox="0 0 140 140" fill="none" xmlns="http://www.w3.org/2000/svg">
<circle cx="70" cy="70" r="70" fill="#C2FADF" fill-opacity="0.27"/>
<path d="M92.4603 96.3386H47.8779C49.4534 93.9791 51.9457 92.3891 54.7492 91.9549C59.1961 91.268 65.5537 89.938 66.1021 87.9008C66.2568 87.3249 66.2228 86.7369 66.0616 86.1602H74.2774C74.1163 86.7369 74.0806 87.3249 74.2361 87.9008C74.7845 89.938 81.1422 91.268 85.5899 91.9549C88.3933 92.3891 90.8849 93.9791 92.4603 96.3386Z" fill="#1DBF73"/>
<path d="M48.5171 42.43V48.3268H91.8216V42.43C91.8216 41.0935 90.7281 40 89.3916 40H50.9471C49.6106 40 48.5171 41.0935 48.5171 42.43ZM84.3275 44.1634C84.3275 43.6065 84.7831 43.1509 85.34 43.1509H87.608C88.1649 43.1509 88.6205 43.6065 88.6205 44.1634C88.6205 44.7203 88.1649 45.1759 87.608 45.1759H85.34C84.7831 45.1759 84.3275 44.7203 84.3275 44.1634ZM77.564 44.1634C77.564 43.6065 78.0196 43.1509 78.5765 43.1509H80.8445C81.4014 43.1509 81.857 43.6065 81.857 44.1634C81.857 44.7203 81.4014 45.1759 80.8445 45.1759H78.5765C78.0196 45.1759 77.564 44.7203 77.564 44.1634ZM70.8005 44.1634C70.8005 43.6065 71.2561 43.1509 71.813 43.1509H74.081C74.6379 43.1509 75.0935 43.6065 75.0935 44.1634C75.0935 44.7203 74.6379 45.1759 74.081 45.1759H71.813C71.2561 45.1759 70.8005 44.7203 70.8005 44.1634Z" fill="#1DBF73"/>
<path d="M95.9084 44.7705H93.8464V48.3265C93.8464 48.3302 93.8464 48.3339 93.8464 48.3376C93.8428 49.0053 93.8428 49.6727 93.8464 50.3405C93.8464 50.3442 93.8464 50.3478 93.8464 50.3516V75.5085C93.8464 77.969 91.8519 79.9636 89.3914 79.9636H50.9469C48.4865 79.9636 46.4919 77.969 46.4919 75.5085V50.3516C46.4919 50.3478 46.4919 50.3441 46.4919 50.3405C46.4956 49.6727 46.4956 49.0054 46.4919 48.3377C46.4919 48.334 46.4919 48.3303 46.4919 48.3267V44.7705H44.43C43.088 44.7705 42 45.8584 42 47.2005V81.7046C42 83.0466 43.088 84.1346 44.43 84.1346H95.9085C97.2505 84.1346 98.3385 83.0466 98.3385 81.7046V47.2005C98.3384 45.8585 97.2504 44.7705 95.9084 44.7705Z" fill="#1DBF73"/>
<path d="M79.837 65.5049H78.5566V67.587H79.837C80.1305 67.587 80.377 67.4875 80.5772 67.2886C80.7773 67.0896 80.8774 66.84 80.8774 66.5393C80.8774 66.2565 80.7773 66.0134 80.5772 65.8099C80.377 65.6067 80.1304 65.5049 79.837 65.5049Z" fill="#1DBF73"/>
<path d="M48.5166 50.3516V75.5085C48.5166 76.8483 49.6069 77.9385 50.9466 77.9385H89.3916C90.7314 77.9385 91.8216 76.8483 91.8216 75.5085C91.8216 75.5085 91.8216 50.3524 91.8216 50.3516H48.5166ZM52.1413 55.0954H54.4093C54.9661 55.0954 55.4218 55.551 55.4218 56.1079C55.4218 56.6648 54.9661 57.1204 54.4093 57.1204H52.1413C51.5844 57.1204 51.1288 56.6648 51.1288 56.1079C51.1288 55.551 51.5844 55.0954 52.1413 55.0954ZM56.2746 71.076C56.67 71.4713 56.67 72.1125 56.2746 72.5079C55.8792 72.9033 55.2381 72.9033 54.8427 72.5079L51.4252 69.0904C51.0299 68.6951 51.0299 68.054 51.4252 67.6585L54.8427 64.2411C55.2381 63.8457 55.8792 63.8457 56.2746 64.2411C56.67 64.6365 56.67 65.2776 56.2746 65.673L53.5731 68.3745L56.2746 71.076ZM66.383 69.875C66.153 70.41 65.8393 70.8762 65.4415 71.274C65.0436 71.6719 64.5772 71.9836 64.0424 72.209C63.5074 72.4344 62.935 72.5472 62.325 72.5472C61.715 72.5472 61.1401 72.4344 60.601 72.209C60.0616 71.9836 59.5931 71.6742 59.1953 71.2807C58.7974 70.8874 58.4813 70.4253 58.2471 69.8948C58.0127 69.3644 57.8957 68.7941 57.8957 68.1841C57.8957 67.5919 58.0062 67.0282 58.2272 66.4933C58.4481 65.9585 58.7554 65.4878 59.1489 65.081C59.5422 64.6744 60.0043 64.3516 60.5347 64.1129C61.0652 63.8742 61.6398 63.7548 62.2587 63.7548C62.8953 63.7548 63.4855 63.8721 64.0292 64.1063C64.5729 64.3406 65.0458 64.6566 65.4481 65.0544C65.8504 65.4523 66.1642 65.9187 66.3897 66.4536C66.6151 66.9886 66.7278 67.5565 66.7278 68.1577C66.7278 68.7677 66.6128 69.3402 66.383 69.875ZM75.8781 69.875C75.648 70.41 75.3343 70.8762 74.9365 71.274C74.5387 71.6719 74.0723 71.9836 73.5374 72.209C73.0024 72.4344 72.4301 72.5472 71.8201 72.5472C71.21 72.5472 70.6352 72.4344 70.0961 72.209C69.5567 71.9836 69.0882 71.6742 68.6903 71.2807C68.2924 70.8874 67.9763 70.4253 67.742 69.8948C67.5077 69.3644 67.3907 68.7941 67.3907 68.1841C67.3907 67.5919 67.5011 67.0282 67.7222 66.4933C67.9431 65.9585 68.2504 65.4878 68.6439 65.081C69.0372 64.6744 69.4992 64.3516 70.0297 64.1129C70.5602 63.8742 71.1348 63.7548 71.7537 63.7548C72.3903 63.7548 72.9805 63.8721 73.5241 64.1063C74.0679 64.3406 74.5408 64.6566 74.9431 65.0544C75.3453 65.4523 75.6592 65.9187 75.8847 66.4536C76.1101 66.9886 76.2229 67.5565 76.2229 68.1577C76.2229 68.7677 76.1079 69.3402 75.8781 69.875ZM82.236 67.5675C82.0985 67.8814 81.9101 68.1576 81.6705 68.3963C81.431 68.635 81.1515 68.823 80.8322 68.9599C80.5128 69.0971 80.1758 69.1655 79.821 69.1655H78.5568V71.5659C78.5568 72.0963 78.2982 72.3616 77.781 72.3616C77.2549 72.3616 76.9919 72.0964 76.9919 71.5659V64.8688C76.9919 64.25 77.3056 63.9404 77.9334 63.9404H79.8299C80.1834 63.9404 80.5195 64.0091 80.8378 64.146C81.1561 64.2832 81.4346 64.4709 81.6733 64.7096C81.912 64.9483 82.0998 65.2268 82.2369 65.5451C82.3739 65.8634 82.4424 66.1995 82.4424 66.5529C82.4424 66.9156 82.3736 67.2538 82.236 67.5675ZM88.9127 69.0904L85.4952 72.5079C85.0998 72.9033 84.4587 72.9033 84.0634 72.5079C83.6679 72.1125 83.6679 71.4714 84.0634 71.076L86.7649 68.3745L84.0634 65.673C83.6679 65.2775 83.6679 64.6365 84.0634 64.241C84.4587 63.8456 85.0998 63.8456 85.4952 64.241L88.9127 67.6584C89.308 68.054 89.308 68.695 88.9127 69.0904ZM88.1967 57.1204H58.7833C58.2264 57.1204 57.7708 56.6648 57.7708 56.1079C57.7708 55.551 58.2264 55.0954 58.7833 55.0954H88.1967C88.7536 55.0954 89.2092 55.551 89.2092 56.1079C89.2092 56.6648 88.7536 57.1204 88.1967 57.1204Z" fill="#1DBF73"/>
<path d="M73.783 66.1548C73.5265 65.8984 73.2261 65.6952 72.8812 65.5448C72.5364 65.3946 72.1738 65.3193 71.7938 65.3193C71.3959 65.3193 71.0267 65.3969 70.6865 65.5514C70.346 65.7062 70.052 65.914 69.8045 66.1747C69.5569 66.4356 69.3624 66.7406 69.221 67.0898C69.0795 67.4391 69.0088 67.8038 69.0088 68.1838C69.0088 68.5729 69.0794 68.9353 69.221 69.2712C69.3624 69.6074 69.5592 69.9035 69.8112 70.1597C70.0631 70.4163 70.357 70.6172 70.693 70.7632C71.0289 70.9091 71.3959 70.982 71.7937 70.982C72.1916 70.982 72.5606 70.9091 72.9011 70.7632C73.2414 70.6173 73.5397 70.4163 73.7962 70.1597C74.0526 69.9034 74.2537 69.6028 74.3996 69.258C74.5455 68.9131 74.6184 68.5464 74.6184 68.1573C74.6184 67.7683 74.5431 67.4014 74.3929 67.0565C74.2426 66.7117 74.0394 66.4113 73.783 66.1548Z" fill="#1DBF73"/>
<path d="M64.2879 66.1548C64.0314 65.8984 63.7309 65.6952 63.3861 65.5448C63.0413 65.3946 62.6787 65.3193 62.2987 65.3193C61.9008 65.3193 61.5316 65.3969 61.1913 65.5514C60.8509 65.7062 60.5569 65.914 60.3094 66.1747C60.0618 66.4356 59.8672 66.7406 59.7259 67.0898C59.5844 67.4391 59.5137 67.8038 59.5137 68.1838C59.5137 68.5729 59.5843 68.9353 59.7259 69.2712C59.8672 69.6074 60.0641 69.9035 60.3161 70.1597C60.568 70.4163 60.8618 70.6172 61.1979 70.7632C61.5338 70.9091 61.9008 70.982 62.2986 70.982C62.6965 70.982 63.0655 70.9091 63.406 70.7632C63.7462 70.6173 64.0446 70.4163 64.3011 70.1597C64.5575 69.9034 64.7586 69.6028 64.9045 69.258C65.0503 68.9131 65.1232 68.5464 65.1232 68.1573C65.1232 67.7683 65.048 67.4014 64.8977 67.0565C64.7475 66.7117 64.5443 66.4113 64.2879 66.1548Z" fill="#1DBF73"/>
</svg>
