<svg width="140" height="140" viewBox="0 0 140 140" fill="none" xmlns="http://www.w3.org/2000/svg">
<circle cx="70" cy="70" r="70" fill="#C2FADF" fill-opacity="0.27"/>
<g clip-path="url(#clip0_362_459)">
<path d="M81.2963 34.6075L84.3338 35.2825L86.7975 36.16L88.7888 37.1725L90.3075 38.2525L91.455 39.4L92.2988 40.5475L92.8388 41.6613L93.1763 42.6737L93.3113 43.5512L93.3788 44.2262L93.345 44.665V62.6875L93.1763 64.8138L92.7375 66.67L92.0288 68.2225L91.1513 69.505L90.1388 70.5513L89.025 71.395L87.8438 72.0363L86.6625 72.5088L85.5488 72.8463L84.5363 73.0825L83.6588 73.2175L82.95 73.285H62.8013L60.4725 73.4537L58.4813 73.9263L56.7938 74.6688L55.41 75.58L54.2963 76.66L53.385 77.8412L52.71 79.0563L52.2038 80.305L51.8663 81.4862L51.63 82.5662L51.495 83.4775L51.4275 84.1862V94.5138H43.9013L43.1925 94.4125L42.2475 94.1763L41.1675 93.7712L39.9863 93.1638L38.7713 92.2863L37.5563 91.0713L36.375 89.5188L35.295 87.5275L34.35 85.0638L33.6413 82.0938L33.1688 78.55L33 74.3988L33.2025 70.2812L33.7425 66.7713L34.5525 63.835L35.6325 61.4388L36.8475 59.515L38.1975 58.03L39.615 56.9163L41.0325 56.1063L42.3825 55.5662L43.5975 55.2288L44.6775 55.06L45.4875 55.0263H46.0275L46.23 55.06H73.77V52.2587H54.06L54.0263 42.9775L53.9588 41.7287L54.1275 40.5813L54.4988 39.535L55.0725 38.59L55.9163 37.7125L56.9625 36.9362L58.245 36.2613L59.73 35.6538L61.4513 35.1475L63.4088 34.7425L65.5688 34.405L67.965 34.2025L70.5638 34.0675L73.3988 34L77.685 34.1688L81.2963 34.6075ZM60.0338 41.29L59.2575 42.4038L58.9875 43.7875L59.2575 45.1712L60.0338 46.3188L61.1475 47.0612L62.5313 47.365L63.915 47.0612L65.0288 46.3188L65.805 45.1712L66.075 43.7875L65.805 42.4038L65.0288 41.29L63.915 40.5475L62.5313 40.2438L61.1475 40.5475L60.0338 41.29ZM104.213 54.6213L105.158 54.8237L106.238 55.2288L107.419 55.8362L108.634 56.7475L109.849 57.9288L111.03 59.515L112.11 61.5062L113.055 63.97L113.764 66.94L114.236 70.45L114.405 74.6012L114.203 78.7525L113.663 82.2625L112.853 85.165L111.773 87.5612L110.558 89.485L109.208 91.0037L107.79 92.1175L106.373 92.9275L105.023 93.4675L103.808 93.7712L102.728 93.94L101.918 94.0075L101.378 93.9738H73.635V96.7412H93.345L93.3788 106.056L93.4463 107.271L93.2775 108.419L92.9063 109.465L92.3325 110.444L91.4888 111.287L90.4425 112.097L89.16 112.772L87.675 113.346L85.9538 113.853L83.9963 114.291L81.8363 114.595L79.44 114.831L76.8413 114.966L74.0063 115L69.72 114.865L66.1088 114.393L63.0713 113.718L60.6075 112.874L58.6163 111.861L57.0975 110.747L55.95 109.6L55.1063 108.452L54.5663 107.339L54.2288 106.326L54.0938 105.482L54.0263 104.807L54.06 104.369V86.3463L54.2288 84.1862L54.6675 82.3638L55.3763 80.8112L56.2538 79.5287L57.2663 78.4487L58.38 77.6388L59.5613 76.9637L60.7425 76.4912L61.8563 76.1537L62.8688 75.9513L63.7463 75.8162L64.455 75.7487L64.8938 75.715H84.6038L86.9325 75.5463L88.9238 75.0737L90.6113 74.365L91.995 73.42L93.1088 72.34L94.02 71.1588L94.695 69.9437L95.2013 68.7287L95.5388 67.5475L95.775 66.4675L95.91 65.5225L95.9775 64.8138V54.4862H103.031L103.504 54.52L104.213 54.6213ZM82.3763 102.715L81.6 103.829L81.33 105.213L81.6 106.596L82.3763 107.71L83.49 108.486L84.8738 108.756L86.2575 108.486L87.3713 107.71L88.1475 106.596L88.4175 105.213L88.1475 103.829L87.3713 102.715L86.2575 101.939L84.8738 101.669L83.49 101.939L82.3763 102.715Z" fill="#1DBF73"/>
</g>
<defs>
<clipPath id="clip0_362_459">
<rect width="81" height="81" fill="white" transform="translate(33 34)"/>
</clipPath>
</defs>
</svg>
