<svg width="32" height="32" viewBox="0 0 32 32" fill="none" xmlns="http://www.w3.org/2000/svg">
<path d="M16 31C19.9782 31 23.7936 29.4196 26.6066 26.6066C29.4196 23.7936 31 19.9782 31 16C31 12.0218 29.4196 8.20644 26.6066 5.3934C23.7936 2.58035 19.9782 1 16 1C12.0218 1 8.20644 2.58035 5.3934 5.3934C2.58035 8.20644 1 12.0218 1 16C1 19.9782 2.58035 23.7936 5.3934 26.6066C8.20644 29.4196 12.0218 31 16 31Z" stroke="#F8F8F8" stroke-width="1.5" stroke-linecap="round" stroke-linejoin="round"/>
<path d="M10 17.501L13.2467 20.7476C13.4003 20.9021 13.5858 21.0212 13.7901 21.0965C13.9945 21.1719 14.2129 21.2017 14.43 21.184C14.6471 21.1662 14.8578 21.1012 15.0472 20.9936C15.2366 20.886 15.4002 20.7384 15.5267 20.561L22 11.501" stroke="#F8F8F8" stroke-width="1.5" stroke-linecap="round" stroke-linejoin="round"/>
</svg>
