<svg width="140" height="140" viewBox="0 0 140 140" fill="none" xmlns="http://www.w3.org/2000/svg">
<circle cx="70" cy="70" r="70" fill="#C2FADF" fill-opacity="0.27"/>
<path d="M53.5938 72.9844C53.5938 73.7353 53.3711 74.4694 52.9539 75.0938C52.5367 75.7182 51.9437 76.2049 51.2499 76.4922C50.5561 76.7796 49.7927 76.8548 49.0561 76.7083C48.3196 76.5618 47.6431 76.2002 47.1121 75.6692C46.5811 75.1382 46.2195 74.4616 46.073 73.7251C45.9265 72.9886 46.0016 72.2252 46.289 71.5314C46.5764 70.8376 47.0631 70.2446 47.6874 69.8274C48.3118 69.4102 49.0459 69.1875 49.7969 69.1875C50.8039 69.1875 51.7696 69.5875 52.4817 70.2996C53.1937 71.0116 53.5938 71.9774 53.5938 72.9844ZM49.7969 84.375C49.0459 84.375 48.3118 84.5977 47.6874 85.0149C47.0631 85.4321 46.5764 86.0251 46.289 86.7189C46.0016 87.4127 45.9265 88.1761 46.073 88.9126C46.2195 89.6491 46.5811 90.3257 47.1121 90.8567C47.6431 91.3877 48.3196 91.7493 49.0561 91.8958C49.7927 92.0423 50.5561 91.9671 51.2499 91.6797C51.9437 91.3924 52.5367 90.9057 52.9539 90.2813C53.3711 89.6569 53.5938 88.9228 53.5938 88.1719C53.5943 87.6731 53.4964 87.1792 53.3057 86.7183C53.1151 86.2574 52.8355 85.8386 52.4828 85.486C52.1301 85.1333 51.7114 84.8536 51.2505 84.663C50.7896 84.4724 50.2956 84.3745 49.7969 84.375ZM49.7969 54C49.0459 54 48.3118 54.2227 47.6874 54.6399C47.0631 55.0571 46.5764 55.6501 46.289 56.3439C46.0016 57.0377 45.9265 57.8011 46.073 58.5376C46.2195 59.2741 46.5811 59.9507 47.1121 60.4817C47.6431 61.0127 48.3196 61.3743 49.0561 61.5208C49.7927 61.6673 50.5561 61.5921 51.2499 61.3047C51.9437 61.0174 52.5367 60.5307 52.9539 59.9063C53.3711 59.2819 53.5938 58.5478 53.5938 57.7969C53.5938 56.7899 53.1937 55.8241 52.4817 55.1121C51.7696 54.4 50.8039 54 49.7969 54ZM95.4682 70.4531H59.9219C59.2505 70.4531 58.6067 70.7198 58.132 71.1945C57.6573 71.6692 57.3906 72.313 57.3906 72.9844C57.3906 73.6557 57.6573 74.2995 58.132 74.7742C58.6067 75.2489 59.2505 75.5156 59.9219 75.5156H95.4682C96.1395 75.5156 96.7834 75.2489 97.2581 74.7742C97.7328 74.2995 97.9995 73.6557 97.9995 72.9844C97.9995 72.313 97.7328 71.6692 97.2581 71.1945C96.7834 70.7198 96.1395 70.4531 95.4682 70.4531ZM95.3594 85.6406H59.813C59.1417 85.6406 58.4979 85.9073 58.0232 86.382C57.5485 86.8567 57.2818 87.5005 57.2818 88.1719C57.2818 88.8432 57.5485 89.487 58.0232 89.9617C58.4979 90.4364 59.1417 90.7031 59.813 90.7031H95.3594C96.0307 90.7031 96.6745 90.4364 97.1492 89.9617C97.6239 89.487 97.8906 88.8432 97.8906 88.1719C97.8906 87.5005 97.6239 86.8567 97.1492 86.382C96.6745 85.9073 96.0307 85.6406 95.3594 85.6406ZM59.813 60.3281H95.3594C96.0307 60.3281 96.6745 60.0614 97.1492 59.5867C97.6239 59.112 97.8906 58.4682 97.8906 57.7969C97.8906 57.1255 97.6239 56.4817 97.1492 56.007C96.6745 55.5323 96.0307 55.2656 95.3594 55.2656H59.813C59.1417 55.2656 58.4979 55.5323 58.0232 56.007C57.5485 56.4817 57.2818 57.1255 57.2818 57.7969C57.2818 58.4682 57.5485 59.112 58.0232 59.5867C58.4979 60.0614 59.1417 60.3281 59.813 60.3281Z" fill="#1DBF73"/>
</svg>
