<svg width="140" height="140" viewBox="0 0 140 140" fill="none" xmlns="http://www.w3.org/2000/svg">
<circle cx="70" cy="70" r="70" fill="#C2FADF" fill-opacity="0.27"/>
<path fill-rule="evenodd" clip-rule="evenodd" d="M74.1253 74.6354C74.1253 72.7329 75.6654 71.1892 77.5626 71.1892C79.4598 71.1892 81.0003 72.7329 81.0003 74.6354C81.0003 76.5374 79.4598 78.0811 77.5626 78.0811C75.6654 78.0811 74.1253 76.5374 74.1253 74.6354ZM77.5626 65.6757C72.6266 65.6757 68.625 69.6871 68.625 74.6354C68.625 79.5836 72.6264 83.5943 77.5626 83.5943C82.4987 83.5943 86.5003 79.5836 86.5003 74.6354C86.5003 69.6871 82.4986 65.6757 77.5626 65.6757ZM37 90.4868C37 93.533 39.4614 96 42.4997 96H97.5003C100.539 96 103 93.533 103 90.4868V58.7838C103 55.7376 100.539 53.2703 97.5003 53.2703H92.3441L85.3035 46.2126C84.493 45.3998 83.433 45 82.3754 45H72.7636C71.7052 45 70.6325 45.3998 69.8348 46.2126L62.8214 53.2703H57.6249V50.169C57.6249 48.8323 56.5534 47.7568 55.2184 47.7568H46.281C44.9463 47.7568 43.8748 48.8323 43.8748 50.169V53.2703H42.4999C39.4614 53.2703 37.0002 55.7378 37.0002 58.7838L37 90.4868ZM54.8752 65.6757H46.6251C45.1129 65.6757 43.8748 64.4351 43.8748 62.9191C43.8748 61.4026 45.1129 60.162 46.6251 60.162H54.875C56.3869 60.162 57.6249 61.4026 57.6249 62.9191C57.6251 64.4351 56.3869 65.6757 54.8752 65.6757ZM77.5626 60.162C85.5372 60.162 91.9999 66.6409 91.9999 74.6354C91.9999 82.6291 85.5372 89.1083 77.5626 89.1083C69.5878 89.1083 63.1253 82.6291 63.1253 74.6354C63.1253 66.6409 69.5878 60.162 77.5626 60.162Z" fill="#1DBF73"/>
</svg>
