<svg width="140" height="140" viewBox="0 0 140 140" fill="none" xmlns="http://www.w3.org/2000/svg">
<circle cx="70" cy="70" r="70" fill="#C2FADF" fill-opacity="0.27"/>
<path d="M62.4608 48.3114V59.5567H49.3477" fill="#1DBF73"/>
<path d="M105.008 38.7055L99.2125 35.5549C97.2314 34.4811 94.6303 35.0121 93.4039 36.7467L92.9727 37.3485L105.938 44.3812L106.369 43.7794C107.595 42.0449 106.975 39.7793 105.008 38.7055Z" fill="#1DBF73"/>
<path d="M77.7707 58.8358L77.7976 58.8476C77.7437 58.9184 77.7168 59.001 77.7033 59.0836L75.6683 73.4559C75.6413 73.6801 75.7626 73.9043 75.9782 74.0341C76.2074 74.1521 76.4904 74.1521 76.706 74.0223L90.5065 66.0338C90.5874 65.9866 90.6548 65.9276 90.7087 65.845L90.7356 65.8568L104.994 45.7144L92.0429 38.6816L77.7707 58.8358ZM81.5577 69.7979L77.8111 67.7684L78.8893 60.1456L88.8758 65.5736L81.5577 69.7979Z" fill="#1DBF73"/>
<path d="M91.5983 69.1022L90.8032 68.6774L89.0781 69.6804V91.64H50.6954V59.5443L62.1913 49.479H81.221L82.8921 47.1309H61.0728L48 58.5767V94H91.76V68.8544L91.5983 69.1022Z" fill="#1DBF73"/>
</svg>
